<svg xmlns="http://www.w3.org/2000/svg" xmlns:xlink="http://www.w3.org/1999/xlink" width="500" zoomAndPan="magnify" viewBox="0 0 375 374.999991" height="500" preserveAspectRatio="xMidYMid meet" version="1.0"><defs><clipPath id="c114c30011"><path d="M 5.804688 63.492188 L 369.554688 63.492188 L 369.554688 311.742188 L 5.804688 311.742188 Z M 5.804688 63.492188 " clip-rule="nonzero"/></clipPath></defs><g clip-path="url(#c114c30011)"><path fill="#004aad" d="M 369.078125 217.300781 C 365.683594 226.636719 337.683594 226.636719 337.683594 226.636719 L 313.082031 226.636719 L 313.082031 205.851562 L 338.234375 205.851562 C 343.539062 205.644531 347.140625 202.03125 350.109375 196.726562 C 353.078125 191.417969 348.625 186.539062 348.625 186.539062 C 346.59375 194.539062 340.367188 196.273438 337.273438 196.644531 C 289.523438 188.628906 295.171875 162.570312 295.171875 162.570312 L 294.757812 162.226562 C 298.8125 161.195312 301.78125 157.921875 304.285156 153.441406 C 307.253906 148.136719 302.800781 143.257812 302.800781 143.257812 C 300.039062 154.074219 289.644531 153.441406 289.644531 153.441406 L 246.03125 153.441406 C 235.738281 144.851562 237.839844 135.132812 237.839844 135.132812 L 237.496094 134.84375 C 240.972656 133.953125 243.515625 131.148438 245.675781 127.3125 C 248.21875 122.761719 244.398438 118.570312 244.398438 118.570312 C 242.996094 124.097656 239.257812 126.144531 236.464844 126.886719 L 236.464844 126.859375 C 236.464844 126.859375 188.398438 106.957031 187.492188 64.703125 L 187.492188 63.492188 C 187.492188 63.769531 187.492188 64.042969 187.492188 64.304688 C 187.492188 64.03125 187.476562 63.769531 187.476562 63.492188 L 187.476562 64.703125 C 186.570312 106.957031 138.503906 126.859375 138.503906 126.859375 L 138.503906 126.886719 C 135.714844 126.144531 131.976562 124.097656 130.574219 118.570312 C 130.574219 118.570312 126.753906 122.761719 129.296875 127.3125 C 131.453125 131.160156 133.996094 133.964844 137.472656 134.84375 L 137.128906 135.132812 C 137.128906 135.132812 139.234375 144.851562 128.9375 153.441406 L 85.351562 153.441406 C 85.351562 153.441406 74.960938 154.074219 72.199219 143.257812 C 72.199219 143.257812 67.746094 148.136719 70.714844 153.441406 C 73.226562 157.921875 76.183594 161.195312 80.238281 162.226562 L 79.828125 162.570312 C 79.828125 162.570312 85.476562 188.617188 37.726562 196.644531 C 34.632812 196.285156 28.40625 194.554688 26.371094 186.539062 C 26.371094 186.539062 21.917969 191.417969 24.886719 196.726562 C 27.855469 202.03125 31.457031 205.632812 36.761719 205.851562 L 61.917969 205.851562 L 61.917969 226.636719 L 37.3125 226.636719 C 37.3125 226.636719 9.3125 226.636719 5.917969 217.300781 C 5.917969 217.300781 11.789062 245.066406 35.910156 247.28125 C 35.8125 248.007812 35.140625 254.769531 41.324219 254.769531 L 41.324219 311.496094 L 48.351562 311.496094 L 48.351562 254.769531 C 54.234375 254.769531 53.902344 248.65625 53.777344 247.429688 L 69.132812 247.429688 L 69.132812 311.386719 L 166.117188 311.386719 C 158.570312 305.203125 153.761719 295.8125 153.761719 285.300781 C 153.761719 266.675781 168.855469 251.570312 187.492188 251.570312 C 206.117188 251.570312 221.222656 266.675781 221.222656 285.300781 C 221.222656 295.8125 216.410156 305.203125 208.867188 311.386719 L 305.851562 311.386719 L 305.851562 247.429688 L 321.191406 247.429688 C 321.066406 248.65625 320.738281 254.769531 326.621094 254.769531 L 326.621094 311.496094 L 333.644531 311.496094 L 333.644531 254.769531 C 339.816406 254.769531 339.140625 248.023438 339.058594 247.28125 C 363.210938 245.066406 369.078125 217.300781 369.078125 217.300781 Z M 301.207031 205.851562 L 301.207031 226.636719 L 293.152344 226.636719 L 293.152344 205.851562 Z M 273.191406 226.636719 L 273.191406 205.851562 L 281.246094 205.851562 L 281.246094 226.636719 Z M 113.679688 205.851562 L 121.734375 205.851562 L 121.734375 226.636719 L 113.679688 226.636719 Z M 133.625 205.851562 L 141.679688 205.851562 L 141.679688 226.636719 L 133.625 226.636719 Z M 153.570312 205.851562 L 161.625 205.851562 L 161.625 226.636719 L 153.570312 226.636719 Z M 173.5 205.851562 L 181.554688 205.851562 L 181.554688 226.636719 L 173.5 226.636719 Z M 193.445312 205.851562 L 201.5 205.851562 L 201.5 226.636719 L 193.445312 226.636719 Z M 213.386719 205.851562 L 221.441406 205.851562 L 221.441406 226.636719 L 213.386719 226.636719 Z M 233.316406 205.851562 L 241.371094 205.851562 L 241.371094 226.636719 L 233.316406 226.636719 Z M 253.261719 205.851562 L 261.316406 205.851562 L 261.316406 226.636719 L 253.261719 226.636719 Z M 101.804688 205.851562 L 101.804688 226.636719 L 93.75 226.636719 L 93.75 205.851562 Z M 217.621094 143.160156 L 225.265625 143.160156 L 225.265625 153.34375 L 217.621094 153.34375 Z M 200.660156 143.160156 L 208.300781 143.160156 L 208.300781 153.34375 L 200.660156 153.34375 Z M 183.683594 143.160156 L 191.328125 143.160156 L 191.328125 153.34375 L 183.683594 153.34375 Z M 166.710938 143.160156 L 174.351562 143.160156 L 174.351562 153.34375 L 166.710938 153.34375 Z M 149.746094 143.160156 L 157.390625 143.160156 L 157.390625 153.34375 L 149.746094 153.34375 Z M 73.804688 205.851562 L 81.859375 205.851562 L 81.859375 226.636719 L 73.804688 226.636719 Z M 90.988281 302.039062 L 85.253906 302.039062 L 85.253906 251.761719 L 90.988281 251.761719 Z M 106.257812 302.039062 L 100.527344 302.039062 L 100.527344 251.761719 L 106.257812 251.761719 Z M 121.527344 302.039062 L 115.796875 302.039062 L 115.796875 251.761719 L 121.527344 251.761719 Z M 136.800781 302.039062 L 131.066406 302.039062 L 131.066406 251.761719 L 136.800781 251.761719 Z M 243.929688 302.039062 L 238.199219 302.039062 L 238.199219 251.761719 L 243.929688 251.761719 Z M 259.199219 302.039062 L 253.46875 302.039062 L 253.46875 251.761719 L 259.199219 251.761719 Z M 274.472656 302.039062 L 268.738281 302.039062 L 268.738281 251.761719 L 274.472656 251.761719 Z M 289.742188 302.039062 L 284.011719 302.039062 L 284.011719 251.761719 L 289.742188 251.761719 Z M 289.742188 302.039062 " fill-opacity="1" fill-rule="nonzero"/></g></svg>