<svg xmlns="http://www.w3.org/2000/svg" xmlns:xlink="http://www.w3.org/1999/xlink" width="500" zoomAndPan="magnify" viewBox="0 0 375 374.999991" height="500" preserveAspectRatio="xMidYMid meet" version="1.0"><defs><clipPath id="a45dba3155"><path d="M 101.753906 7.457031 L 273.503906 7.457031 L 273.503906 367.457031 L 101.753906 367.457031 Z M 101.753906 7.457031 " clip-rule="nonzero"/></clipPath></defs><g clip-path="url(#a45dba3155)"><path fill="#004aad" d="M 183.925781 32.429688 C 183.925781 32.429688 183.753906 32.167969 183.40625 31.734375 C 183.316406 31.648438 183.316406 31.648438 183.40625 31.558594 L 184.101562 31.300781 C 184.1875 31.210938 184.363281 31.125 184.363281 30.949219 C 184.363281 30.691406 184.535156 30.34375 184.796875 29.90625 C 184.882812 29.734375 184.972656 29.558594 184.972656 29.296875 C 185.320312 27.296875 185.492188 25.207031 185.578125 23.121094 C 185.667969 22.511719 186.277344 22.421875 186.363281 21.8125 C 186.535156 17.464844 186.625 13.199219 186.535156 8.933594 C 186.535156 8.761719 186.449219 8.675781 186.277344 8.675781 L 185.40625 8.5 C 185.320312 8.5 185.230469 8.414062 185.230469 8.328125 C 185.230469 8.238281 185.320312 8.152344 185.320312 8.152344 C 186.710938 7.457031 188.191406 7.457031 189.582031 8.152344 C 189.582031 8.238281 189.667969 8.238281 189.667969 8.238281 C 189.667969 8.328125 189.667969 8.414062 189.582031 8.5 C 189.582031 8.5 189.582031 8.5 189.496094 8.5 L 188.800781 8.585938 C 188.625 8.585938 188.539062 8.761719 188.453125 8.847656 C 188.363281 13.460938 188.453125 17.8125 188.800781 21.988281 C 188.800781 22.074219 188.886719 22.25 188.972656 22.335938 L 189.234375 22.683594 C 189.320312 22.769531 189.410156 22.945312 189.410156 23.121094 C 189.410156 24.945312 189.582031 27.121094 190.019531 29.472656 C 190.019531 29.644531 190.105469 29.90625 190.277344 30.082031 C 190.539062 30.601562 190.714844 30.949219 190.714844 31.039062 C 190.714844 31.210938 190.800781 31.300781 190.886719 31.300781 C 191.0625 31.386719 191.234375 31.386719 191.324219 31.472656 C 191.410156 31.558594 191.410156 31.648438 191.410156 31.734375 C 191.410156 31.734375 191.410156 31.820312 191.410156 31.820312 L 191.234375 32.167969 C 191.148438 32.167969 191.148438 32.257812 191.148438 32.257812 C 191.148438 32.34375 191.234375 32.429688 191.410156 32.429688 C 191.410156 32.429688 191.496094 32.429688 191.585938 32.515625 C 191.757812 32.515625 191.933594 32.691406 191.933594 32.867188 L 192.28125 34.433594 C 192.28125 34.519531 192.367188 34.605469 192.453125 34.605469 L 193.933594 34.867188 C 194.109375 34.953125 194.195312 35.039062 194.195312 35.128906 L 194.628906 37.5625 C 194.628906 37.738281 194.804688 37.824219 194.890625 37.914062 L 197.9375 38.433594 C 198.109375 38.433594 198.285156 38.609375 198.285156 38.78125 C 198.285156 39.304688 198.285156 39.738281 198.109375 40.261719 C 198.109375 40.347656 198.023438 40.4375 197.9375 40.523438 L 196.023438 42.089844 C 195.933594 42.175781 195.847656 42.351562 195.847656 42.523438 C 196.023438 43.21875 196.28125 43.480469 196.71875 43.394531 C 196.890625 43.394531 196.980469 43.308594 196.980469 43.132812 C 197.152344 42.785156 197.414062 42.523438 198.023438 42.4375 C 198.199219 42.4375 198.371094 42.613281 198.371094 42.785156 L 198.371094 53.226562 C 198.371094 53.664062 198.199219 54.011719 197.847656 54.183594 C 196.71875 54.882812 196.109375 55.839844 195.847656 57.230469 C 195.585938 58.363281 195.324219 59.40625 194.976562 60.539062 C 194.976562 60.710938 194.976562 60.796875 194.976562 60.886719 C 194.890625 61.40625 194.890625 62.363281 194.976562 63.671875 C 195.414062 70.542969 196.457031 90.644531 198.109375 124.148438 C 198.285156 127.191406 198.71875 134.15625 199.503906 145.03125 C 200.113281 153.90625 200.632812 160.871094 201.15625 165.828125 C 202.636719 181.058594 204.550781 196.285156 206.898438 211.515625 C 207.160156 212.992188 207.421875 214.648438 207.683594 216.214844 C 207.769531 216.472656 207.945312 216.648438 208.203125 216.648438 C 209.511719 216.648438 210.292969 217.082031 210.640625 218.039062 C 210.726562 218.214844 210.902344 218.386719 211.078125 218.476562 L 214.121094 219.78125 C 214.207031 219.867188 214.296875 219.953125 214.296875 220.128906 L 214.296875 222.390625 C 214.296875 222.476562 214.296875 222.566406 214.207031 222.652344 C 213.949219 222.828125 213.6875 223.175781 213.339844 223.695312 C 212.730469 224.914062 212.035156 226.132812 211.335938 227.351562 C 211.25 227.4375 211.164062 227.527344 211.164062 227.527344 L 210.726562 227.785156 C 210.46875 227.960938 210.378906 228.308594 210.46875 228.570312 C 211.078125 231.964844 211.859375 235.269531 212.730469 238.230469 C 215.773438 248.757812 219.082031 259.894531 222.738281 271.46875 C 223.953125 275.558594 225.347656 279.5625 226.828125 283.738281 C 226.914062 283.828125 227 283.914062 227.175781 283.914062 L 235.09375 283.914062 C 235.265625 283.914062 235.355469 284 235.355469 284.175781 C 235.355469 284.175781 235.355469 284.261719 235.355469 284.261719 C 235.007812 284.871094 234.832031 285.394531 234.832031 285.828125 C 234.832031 287.917969 234.832031 290.003906 234.917969 292.179688 C 234.917969 292.179688 234.917969 292.179688 234.917969 292.265625 C 234.917969 292.441406 235.09375 292.617188 235.355469 292.617188 C 236.921875 292.355469 236.3125 294.441406 235.964844 295.140625 C 235.355469 296.355469 235.265625 297.226562 235.265625 298.359375 C 235.355469 299.230469 235.355469 299.664062 235.265625 299.835938 C 235.09375 302.101562 235.789062 304.625 237.355469 307.320312 C 244.316406 319.417969 248.144531 326.03125 248.84375 327.25 C 252.410156 333.339844 255.976562 339.429688 259.632812 345.695312 C 260.765625 347.699219 262.9375 351.179688 265.984375 356.136719 C 267.8125 359.183594 269.464844 361.535156 270.859375 363.273438 C 271.378906 363.882812 272.074219 364.492188 273.035156 365.015625 C 273.207031 365.101562 273.207031 365.1875 273.207031 365.363281 L 273.207031 367.277344 C 273.207031 367.449219 273.121094 367.539062 273.035156 367.539062 L 236.921875 367.539062 C 236.746094 367.539062 236.660156 367.363281 236.660156 367.277344 C 236.660156 367.277344 236.660156 367.191406 236.660156 367.191406 C 237.183594 360.316406 234.832031 353.355469 231.351562 347.4375 C 225.871094 338.210938 218.558594 331.339844 209.421875 326.902344 C 195.5 320.027344 179.835938 319.9375 165.738281 326.726562 C 153.035156 332.816406 142.332031 345.175781 139.023438 359.011719 C 138.328125 361.792969 138.15625 364.578125 138.414062 367.363281 C 138.414062 367.449219 138.414062 367.539062 138.328125 367.539062 L 101.867188 367.539062 C 101.867188 367.539062 101.78125 367.449219 101.78125 367.449219 L 101.78125 365.277344 C 101.78125 365.1875 101.867188 365.015625 101.957031 365.015625 C 103.957031 364.058594 105.261719 362.054688 106.480469 360.054688 C 110.65625 353.613281 114.484375 347.4375 117.878906 341.519531 C 123.882812 331.425781 130.410156 320.113281 137.457031 307.667969 C 138.851562 305.320312 139.632812 303.667969 139.808594 301.144531 C 139.894531 298.792969 140.15625 296.707031 138.9375 294.617188 C 138.851562 294.53125 138.765625 294.355469 138.765625 294.179688 C 138.765625 293.484375 138.851562 293.050781 138.851562 292.875 C 138.9375 292.703125 139.199219 292.617188 139.722656 292.703125 C 139.722656 292.703125 139.808594 292.703125 139.808594 292.703125 C 139.980469 292.703125 140.15625 292.527344 140.15625 292.355469 C 140.15625 290.875 140.15625 289.394531 140.15625 287.828125 C 140.15625 286.4375 140.242188 285.480469 139.632812 284.261719 C 139.632812 284.261719 139.632812 284.261719 139.632812 284.175781 C 139.546875 284.085938 139.632812 284 139.722656 283.914062 C 139.808594 283.914062 139.808594 283.914062 139.808594 283.914062 L 147.726562 283.914062 C 147.988281 283.914062 148.074219 283.828125 148.160156 283.652344 C 148.511719 282.78125 148.945312 281.738281 149.292969 280.519531 C 153.992188 265.988281 158.515625 251.28125 162.695312 236.3125 C 163.042969 235.183594 163.738281 232.484375 164.695312 228.308594 C 164.695312 228.308594 164.695312 228.308594 164.695312 228.222656 C 164.695312 228.132812 164.609375 227.960938 164.519531 227.960938 L 163.914062 227.699219 C 163.824219 227.699219 163.738281 227.613281 163.738281 227.527344 L 161.648438 223.785156 C 161.648438 223.695312 161.5625 223.695312 161.5625 223.609375 L 160.78125 222.738281 C 160.691406 222.566406 160.605469 222.476562 160.605469 222.304688 L 160.605469 220.390625 C 160.605469 220.128906 160.78125 219.953125 160.953125 219.867188 L 163.914062 218.648438 C 164.085938 218.5625 164.171875 218.476562 164.261719 218.300781 C 164.871094 217.257812 165.042969 216.648438 166.609375 216.734375 C 166.871094 216.734375 167.132812 216.5625 167.132812 216.300781 C 167.304688 215.257812 167.480469 214.386719 167.652344 213.691406 C 170.527344 195.851562 172.960938 176.621094 174.617188 157.214844 C 175.574219 145.378906 176.355469 133.894531 176.964844 122.753906 C 177.921875 103.351562 178.964844 83.597656 180.011719 63.582031 C 180.097656 62.625 180.097656 61.667969 180.097656 60.625 C 180.097656 60.449219 180.011719 60.363281 179.921875 60.277344 L 179.664062 60.101562 C 179.574219 60.015625 179.488281 59.929688 179.488281 59.753906 C 179.140625 57.40625 179.054688 55.488281 176.964844 54.183594 C 176.792969 54.097656 176.703125 53.835938 176.703125 53.664062 L 176.703125 43.046875 C 176.703125 42.785156 176.878906 42.613281 177.140625 42.613281 C 177.226562 42.613281 177.3125 42.699219 177.398438 42.699219 L 177.921875 43.21875 C 178.007812 43.308594 178.007812 43.308594 178.007812 43.308594 C 178.269531 43.570312 178.792969 43.480469 179.054688 43.21875 C 179.054688 43.132812 179.054688 43.132812 179.054688 43.132812 C 179.316406 42.785156 179.226562 42.351562 178.878906 42.089844 L 176.878906 40.4375 C 176.792969 40.347656 176.792969 40.261719 176.792969 40.175781 L 176.792969 38.609375 C 176.792969 38.433594 176.878906 38.347656 177.050781 38.347656 L 180.097656 38 C 180.273438 38 180.359375 37.824219 180.359375 37.738281 L 180.882812 35.128906 C 180.882812 35.039062 180.96875 34.953125 181.054688 34.953125 L 182.273438 34.691406 C 182.535156 34.605469 182.796875 34.433594 182.796875 34.082031 C 182.882812 32.777344 183.144531 32.257812 183.664062 32.515625 C 183.664062 32.605469 183.753906 32.605469 183.753906 32.605469 C 183.839844 32.605469 183.925781 32.515625 183.925781 32.429688 Z M 178.878906 243.277344 C 178.792969 243.277344 178.792969 243.363281 178.792969 243.363281 L 171.65625 282.957031 C 171.65625 282.957031 171.65625 283.042969 171.65625 283.042969 C 171.65625 283.042969 171.742188 283.128906 171.832031 283.128906 L 203.15625 283.128906 C 203.246094 283.128906 203.332031 283.042969 203.332031 283.042969 C 203.332031 283.042969 203.332031 282.957031 203.332031 282.957031 L 196.195312 243.363281 C 196.195312 243.363281 196.109375 243.277344 196.109375 243.277344 Z M 178.878906 243.277344 " fill-opacity="1" fill-rule="evenodd"/></g></svg>