<svg xmlns="http://www.w3.org/2000/svg" xmlns:xlink="http://www.w3.org/1999/xlink" width="500" zoomAndPan="magnify" viewBox="0 0 375 374.999991" height="500" preserveAspectRatio="xMidYMid meet" version="1.0"><defs><filter x="0%" y="0%" width="100%" height="100%" id="bbdd68c7dd"><feColorMatrix values="0 0 0 0 1 0 0 0 0 1 0 0 0 0 1 0 0 0 1 0" color-interpolation-filters="sRGB"/></filter><clipPath id="2aa125cd24"><path d="M 67 110.335938 L 319 110.335938 L 319 264.835938 L 67 264.835938 Z M 67 110.335938 " clip-rule="nonzero"/></clipPath><clipPath id="4dbe97092d"><path d="M 66 110.335938 L 240 110.335938 L 240 264.835938 L 66 264.835938 Z M 66 110.335938 " clip-rule="nonzero"/></clipPath><mask id="f42e5f239c"><g filter="url(#bbdd68c7dd)"><rect x="-37.5" width="450" fill="#000000" y="-37.499999" height="449.999989" fill-opacity="0.3"/></g></mask><clipPath id="42ec63f319"><path d="M 1 0.335938 L 173 0.335938 L 173 154.835938 L 1 154.835938 Z M 1 0.335938 " clip-rule="nonzero"/></clipPath><clipPath id="7c3a741e10"><rect x="0" width="174" y="0" height="155"/></clipPath><mask id="6a316a2003"><g filter="url(#bbdd68c7dd)"><rect x="-37.5" width="450" fill="#000000" y="-37.499999" height="449.999989" fill-opacity="0.4"/></g></mask><clipPath id="2eb11e1379"><path d="M 0.121094 1 L 65 1 L 65 4 L 0.121094 4 Z M 0.121094 1 " clip-rule="nonzero"/></clipPath><clipPath id="2545861955"><rect x="0" width="66" y="0" height="5"/></clipPath><mask id="e88289d80f"><g filter="url(#bbdd68c7dd)"><rect x="-37.5" width="450" fill="#000000" y="-37.499999" height="449.999989" fill-opacity="0.3"/></g></mask><clipPath id="889d37fc14"><rect x="0" width="65" y="0" height="5"/></clipPath><mask id="bab244fe04"><g filter="url(#bbdd68c7dd)"><rect x="-37.5" width="450" fill="#000000" y="-37.499999" height="449.999989" fill-opacity="0.4"/></g></mask><clipPath id="15eff65ac6"><path d="M 1 1 L 28.839844 1 L 28.839844 3.601562 L 1 3.601562 Z M 1 1 " clip-rule="nonzero"/></clipPath><clipPath id="8f87363885"><rect x="0" width="29" y="0" height="4"/></clipPath><mask id="19764e8d8c"><g filter="url(#bbdd68c7dd)"><rect x="-37.5" width="450" fill="#000000" y="-37.499999" height="449.999989" fill-opacity="0.5"/></g></mask><clipPath id="d7c43c0249"><path d="M 1 0.078125 L 13.800781 0.078125 L 13.800781 2.71875 L 1 2.71875 Z M 1 0.078125 " clip-rule="nonzero"/></clipPath><clipPath id="32c8b43ef2"><rect x="0" width="14" y="0" height="3"/></clipPath><clipPath id="ee28c8c8c9"><path d="M 170 110.335938 L 213 110.335938 L 213 143 L 170 143 Z M 170 110.335938 " clip-rule="nonzero"/></clipPath><mask id="a90d449638"><g filter="url(#bbdd68c7dd)"><rect x="-37.5" width="450" fill="#000000" y="-37.499999" height="449.999989" fill-opacity="0.5"/></g></mask><clipPath id="e445b1b15a"><path d="M 0.160156 0.335938 L 42 0.335938 L 42 32 L 0.160156 32 Z M 0.160156 0.335938 " clip-rule="nonzero"/></clipPath><clipPath id="4de214a6e9"><rect x="0" width="43" y="0" height="33"/></clipPath><mask id="7d548ac560"><g filter="url(#bbdd68c7dd)"><rect x="-37.5" width="450" fill="#000000" y="-37.499999" height="449.999989" fill-opacity="0.3"/></g></mask><clipPath id="e48349fbcf"><path d="M 0.519531 0 L 9 0 L 9 3 L 0.519531 3 Z M 0.519531 0 " clip-rule="nonzero"/></clipPath><clipPath id="c37861b9e0"><rect x="0" width="10" y="0" height="4"/></clipPath><mask id="c43b20954c"><g filter="url(#bbdd68c7dd)"><rect x="-37.5" width="450" fill="#000000" y="-37.499999" height="449.999989" fill-opacity="0.5"/></g></mask><clipPath id="fca755c4f1"><path d="M 1 0.160156 L 57 0.160156 L 57 2.800781 L 1 2.800781 Z M 1 0.160156 " clip-rule="nonzero"/></clipPath><clipPath id="590c3c0af8"><rect x="0" width="58" y="0" height="3"/></clipPath><clipPath id="dc41df1366"><path d="M 192 110.335938 L 240 110.335938 L 240 264.835938 L 192 264.835938 Z M 192 110.335938 " clip-rule="nonzero"/></clipPath><mask id="97bc8d33ab"><g filter="url(#bbdd68c7dd)"><rect x="-37.5" width="450" fill="#000000" y="-37.499999" height="449.999989" fill-opacity="0.7"/></g></mask><clipPath id="598b816586"><path d="M 1 0.335938 L 47 0.335938 L 47 154.835938 L 1 154.835938 Z M 1 0.335938 " clip-rule="nonzero"/></clipPath><clipPath id="0be7f51cca"><rect x="0" width="48" y="0" height="155"/></clipPath><clipPath id="04910c82cc"><path d="M 66 110.335938 L 194 110.335938 L 194 264.835938 L 66 264.835938 Z M 66 110.335938 " clip-rule="nonzero"/></clipPath><mask id="a67b0758af"><g filter="url(#bbdd68c7dd)"><rect x="-37.5" width="450" fill="#000000" y="-37.499999" height="449.999989" fill-opacity="0.6"/></g></mask><clipPath id="b2dfdb5cc2"><path d="M 1 0.335938 L 127.441406 0.335938 L 127.441406 154.835938 L 1 154.835938 Z M 1 0.335938 " clip-rule="nonzero"/></clipPath><clipPath id="b05de897d3"><rect x="0" width="128" y="0" height="155"/></clipPath><mask id="068b6ea895"><g filter="url(#bbdd68c7dd)"><rect x="-37.5" width="450" fill="#000000" y="-37.499999" height="449.999989" fill-opacity="0.7"/></g></mask><clipPath id="a08e8d9f91"><path d="M 0.679688 0.320312 L 112.519531 0.320312 L 112.519531 141.679688 L 0.679688 141.679688 Z M 0.679688 0.320312 " clip-rule="nonzero"/></clipPath><clipPath id="bd0cfb3acf"><rect x="0" width="113" y="0" height="142"/></clipPath><clipPath id="f311d9cf8e"><path d="M 3.777344 151 L 189 151 L 189 264.835938 L 3.777344 264.835938 Z M 3.777344 151 " clip-rule="nonzero"/></clipPath><clipPath id="c7edb6e1ca"><path d="M 3.777344 150 L 130 150 L 130 264.835938 L 3.777344 264.835938 Z M 3.777344 150 " clip-rule="nonzero"/></clipPath><mask id="ad21eeb6c8"><g filter="url(#bbdd68c7dd)"><rect x="-37.5" width="450" fill="#000000" y="-37.499999" height="449.999989" fill-opacity="0.3"/></g></mask><clipPath id="10603b679d"><path d="M 0.839844 1 L 126.601562 1 L 126.601562 114.835938 L 0.839844 114.835938 Z M 0.839844 1 " clip-rule="nonzero"/></clipPath><clipPath id="6920efb537"><rect x="0" width="127" y="0" height="115"/></clipPath><mask id="2e739d2957"><g filter="url(#bbdd68c7dd)"><rect x="-37.5" width="450" fill="#000000" y="-37.499999" height="449.999989" fill-opacity="0.4"/></g></mask><clipPath id="37f9c66099"><path d="M 1 0.160156 L 49 0.160156 L 49 2.800781 L 1 2.800781 Z M 1 0.160156 " clip-rule="nonzero"/></clipPath><clipPath id="84eaa1653f"><rect x="0" width="50" y="0" height="3"/></clipPath><mask id="4201516e11"><g filter="url(#bbdd68c7dd)"><rect x="-37.5" width="450" fill="#000000" y="-37.499999" height="449.999989" fill-opacity="0.3"/></g></mask><clipPath id="358e6d4c15"><path d="M 0.199219 0.238281 L 47 0.238281 L 47 2.878906 L 0.199219 2.878906 Z M 0.199219 0.238281 " clip-rule="nonzero"/></clipPath><clipPath id="b682015b65"><rect x="0" width="47" y="0" height="3"/></clipPath><mask id="6975bb67b0"><g filter="url(#bbdd68c7dd)"><rect x="-37.5" width="450" fill="#000000" y="-37.499999" height="449.999989" fill-opacity="0.4"/></g></mask><clipPath id="955d744fb6"><path d="M 0.160156 1 L 20.800781 1 L 20.800781 2.960938 L 0.160156 2.960938 Z M 0.160156 1 " clip-rule="nonzero"/></clipPath><clipPath id="729e7e7122"><rect x="0" width="21" y="0" height="3"/></clipPath><mask id="a04f1fac47"><g filter="url(#bbdd68c7dd)"><rect x="-37.5" width="450" fill="#000000" y="-37.499999" height="449.999989" fill-opacity="0.5"/></g></mask><clipPath id="15ca841e36"><path d="M 1 1 L 10.761719 1 L 10.761719 3 L 1 3 Z M 1 1 " clip-rule="nonzero"/></clipPath><clipPath id="f67b785c2f"><rect x="0" width="11" y="0" height="4"/></clipPath><mask id="fa3a8ec9dc"><g filter="url(#bbdd68c7dd)"><rect x="-37.5" width="450" fill="#000000" y="-37.499999" height="449.999989" fill-opacity="0.5"/></g></mask><clipPath id="00e88f88c9"><path d="M 0.679688 1 L 31 1 L 31 25 L 0.679688 25 Z M 0.679688 1 " clip-rule="nonzero"/></clipPath><clipPath id="76663ac9c0"><rect x="0" width="32" y="0" height="26"/></clipPath><mask id="78260de05d"><g filter="url(#bbdd68c7dd)"><rect x="-37.5" width="450" fill="#000000" y="-37.499999" height="449.999989" fill-opacity="0.3"/></g></mask><clipPath id="e7c437a2aa"><path d="M 1 0.320312 L 7.960938 0.320312 L 7.960938 2.960938 L 1 2.960938 Z M 1 0.320312 " clip-rule="nonzero"/></clipPath><clipPath id="57fe22c037"><rect x="0" width="8" y="0" height="3"/></clipPath><mask id="6426cd3890"><g filter="url(#bbdd68c7dd)"><rect x="-37.5" width="450" fill="#000000" y="-37.499999" height="449.999989" fill-opacity="0.5"/></g></mask><clipPath id="5b8d42031e"><path d="M 1 1 L 42.601562 1 L 42.601562 2.878906 L 1 2.878906 Z M 1 1 " clip-rule="nonzero"/></clipPath><clipPath id="542926aa81"><rect x="0" width="43" y="0" height="3"/></clipPath><clipPath id="a95c435b8c"><path d="M 95 150 L 130 150 L 130 264.835938 L 95 264.835938 Z M 95 150 " clip-rule="nonzero"/></clipPath><mask id="bc557b05d7"><g filter="url(#bbdd68c7dd)"><rect x="-37.5" width="450" fill="#000000" y="-37.499999" height="449.999989" fill-opacity="0.7"/></g></mask><clipPath id="74a72c0711"><path d="M 1 1 L 34.601562 1 L 34.601562 114.835938 L 1 114.835938 Z M 1 1 " clip-rule="nonzero"/></clipPath><clipPath id="7c5d2d888a"><rect x="0" width="35" y="0" height="115"/></clipPath><clipPath id="47fa464ab4"><path d="M 3.777344 150 L 97 150 L 97 264.835938 L 3.777344 264.835938 Z M 3.777344 150 " clip-rule="nonzero"/></clipPath><mask id="a7acac2648"><g filter="url(#bbdd68c7dd)"><rect x="-37.5" width="450" fill="#000000" y="-37.499999" height="449.999989" fill-opacity="0.6"/></g></mask><clipPath id="ecc6be4368"><path d="M 0.839844 1 L 93.238281 1 L 93.238281 114.835938 L 0.839844 114.835938 Z M 0.839844 1 " clip-rule="nonzero"/></clipPath><clipPath id="fb1c0db82a"><rect x="0" width="94" y="0" height="115"/></clipPath><mask id="2e3e98d78e"><g filter="url(#bbdd68c7dd)"><rect x="-37.5" width="450" fill="#000000" y="-37.499999" height="449.999989" fill-opacity="0.7"/></g></mask><clipPath id="2fde7fa0f0"><path d="M 1 1 L 82.640625 1 L 82.640625 104 L 1 104 Z M 1 1 " clip-rule="nonzero"/></clipPath><clipPath id="74cde3eca8"><rect x="0" width="83" y="0" height="105"/></clipPath><clipPath id="28c5bff21f"><path d="M 266 200 L 371.277344 200 L 371.277344 264.835938 L 266 264.835938 Z M 266 200 " clip-rule="nonzero"/></clipPath><clipPath id="8f7b47217e"><path d="M 266 199 L 339 199 L 339 264.835938 L 266 264.835938 Z M 266 199 " clip-rule="nonzero"/></clipPath><mask id="3e924699ca"><g filter="url(#bbdd68c7dd)"><rect x="-37.5" width="450" fill="#000000" y="-37.499999" height="449.999989" fill-opacity="0.3"/></g></mask><clipPath id="b3ee9759c3"><path d="M 0.398438 1 L 72 1 L 72 65.835938 L 0.398438 65.835938 Z M 0.398438 1 " clip-rule="nonzero"/></clipPath><clipPath id="aec4a0d0ea"><rect x="0" width="73" y="0" height="66"/></clipPath><mask id="913f588c8d"><g filter="url(#bbdd68c7dd)"><rect x="-37.5" width="450" fill="#000000" y="-37.499999" height="449.999989" fill-opacity="0.4"/></g></mask><clipPath id="66fc189d85"><path d="M 1 1 L 27.960938 1 L 27.960938 2.320312 L 1 2.320312 Z M 1 1 " clip-rule="nonzero"/></clipPath><clipPath id="7a659e6920"><rect x="0" width="28" y="0" height="3"/></clipPath><mask id="44d7ba6693"><g filter="url(#bbdd68c7dd)"><rect x="-37.5" width="450" fill="#000000" y="-37.499999" height="449.999989" fill-opacity="0.3"/></g></mask><clipPath id="31ccd3bc6d"><path d="M 1 0.199219 L 27.320312 0.199219 L 27.320312 2 L 1 2 Z M 1 0.199219 " clip-rule="nonzero"/></clipPath><clipPath id="565345e6e5"><rect x="0" width="28" y="0" height="3"/></clipPath><mask id="03e0f7f6a0"><g filter="url(#bbdd68c7dd)"><rect x="-37.5" width="450" fill="#000000" y="-37.499999" height="449.999989" fill-opacity="0.4"/></g></mask><clipPath id="dbcbedf85a"><path d="M 0.078125 0.0390625 L 11.839844 0.0390625 L 11.839844 1.960938 L 0.078125 1.960938 Z M 0.078125 0.0390625 " clip-rule="nonzero"/></clipPath><clipPath id="145fcca4d5"><rect x="0" width="12" y="0" height="2"/></clipPath><mask id="5e392342cf"><g filter="url(#bbdd68c7dd)"><rect x="-37.5" width="450" fill="#000000" y="-37.499999" height="449.999989" fill-opacity="0.5"/></g></mask><clipPath id="3ddb3c1781"><path d="M 0.28125 1 L 6 1 L 6 2.640625 L 0.28125 2.640625 Z M 0.28125 1 " clip-rule="nonzero"/></clipPath><clipPath id="f7c0ec73f7"><rect x="0" width="7" y="0" height="3"/></clipPath><mask id="f1f8220722"><g filter="url(#bbdd68c7dd)"><rect x="-37.5" width="450" fill="#000000" y="-37.499999" height="449.999989" fill-opacity="0.5"/></g></mask><clipPath id="fc32468722"><rect x="0" width="20" y="0" height="16"/></clipPath><mask id="fa636f8e0e"><g filter="url(#bbdd68c7dd)"><rect x="-37.5" width="450" fill="#000000" y="-37.499999" height="449.999989" fill-opacity="0.3"/></g></mask><clipPath id="468145e5e4"><path d="M 0.199219 0.160156 L 4.519531 0.160156 L 4.519531 2 L 0.199219 2 Z M 0.199219 0.160156 " clip-rule="nonzero"/></clipPath><clipPath id="bc9a81fc6c"><rect x="0" width="5" y="0" height="3"/></clipPath><mask id="4cfa398bcb"><g filter="url(#bbdd68c7dd)"><rect x="-37.5" width="450" fill="#000000" y="-37.499999" height="449.999989" fill-opacity="0.5"/></g></mask><clipPath id="b1ce60fe8f"><path d="M 0.480469 1 L 24 1 L 24 1.960938 L 0.480469 1.960938 Z M 0.480469 1 " clip-rule="nonzero"/></clipPath><clipPath id="14c756936e"><rect x="0" width="25" y="0" height="2"/></clipPath><clipPath id="c3cce73c70"><path d="M 318 199 L 339 199 L 339 264.835938 L 318 264.835938 Z M 318 199 " clip-rule="nonzero"/></clipPath><mask id="3955efd921"><g filter="url(#bbdd68c7dd)"><rect x="-37.5" width="450" fill="#000000" y="-37.499999" height="449.999989" fill-opacity="0.7"/></g></mask><clipPath id="95ba8e0774"><path d="M 0.71875 1 L 20 1 L 20 65.835938 L 0.71875 65.835938 Z M 0.71875 1 " clip-rule="nonzero"/></clipPath><clipPath id="6d681c6043"><rect x="0" width="21" y="0" height="66"/></clipPath><clipPath id="388344df41"><path d="M 266 199 L 320 199 L 320 264.835938 L 266 264.835938 Z M 266 199 " clip-rule="nonzero"/></clipPath><mask id="83fb3bb2b2"><g filter="url(#bbdd68c7dd)"><rect x="-37.5" width="450" fill="#000000" y="-37.499999" height="449.999989" fill-opacity="0.6"/></g></mask><clipPath id="6c3239505f"><path d="M 0.398438 1 L 53 1 L 53 65.835938 L 0.398438 65.835938 Z M 0.398438 1 " clip-rule="nonzero"/></clipPath><clipPath id="97f60141ac"><rect x="0" width="54" y="0" height="66"/></clipPath><mask id="29930f7aac"><g filter="url(#bbdd68c7dd)"><rect x="-37.5" width="450" fill="#000000" y="-37.499999" height="449.999989" fill-opacity="0.7"/></g></mask><clipPath id="3be4df7ea4"><path d="M 0.121094 0 L 47 0 L 47 59 L 0.121094 59 Z M 0.121094 0 " clip-rule="nonzero"/></clipPath><clipPath id="8ad1383219"><rect x="0" width="48" y="0" height="60"/></clipPath></defs><g clip-path="url(#2aa125cd24)"><path fill="#004aad" d="M 318.882812 264.667969 L 67.066406 264.667969 L 114.082031 207.019531 L 115.78125 205 L 170.824219 137.566406 L 170.824219 137.511719 L 193.003906 110.335938 L 211.242188 132.726562 L 215.976562 138.523438 L 217.835938 140.808594 L 272.988281 208.402344 L 274.527344 210.316406 Z M 318.882812 264.667969 " fill-opacity="1" fill-rule="nonzero"/></g><g clip-path="url(#4dbe97092d)"><g mask="url(#f42e5f239c)"><g transform="matrix(1, 0, 0, 1, 66, 110)"><g clip-path="url(#7c3a741e10)"><g clip-path="url(#42ec63f319)"><path fill="#004aad" d="M 172.207031 154.667969 L 1.066406 154.667969 L 48.082031 97.019531 L 49.78125 95 L 127.003906 0.335938 Z M 172.207031 154.667969 " fill-opacity="1" fill-rule="nonzero"/></g></g></g></g></g><g mask="url(#6a316a2003)"><g transform="matrix(1, 0, 0, 1, 171, 168)"><g clip-path="url(#2545861955)"><g clip-path="url(#2eb11e1379)"><path fill="#004aad" d="M 64.691406 1.253906 L 0.871094 1.253906 L 39.953125 3.621094 Z M 64.691406 1.253906 " fill-opacity="1" fill-rule="nonzero"/></g></g></g></g><g mask="url(#e88289d80f)"><g transform="matrix(1, 0, 0, 1, 137, 222)"><g clip-path="url(#889d37fc14)"><path fill="#004aad" d="M 1.042969 1.472656 L 63.679688 1.472656 L 33.984375 3.6875 Z M 1.042969 1.472656 " fill-opacity="1" fill-rule="nonzero"/></g></g></g><g mask="url(#bab244fe04)"><g transform="matrix(1, 0, 0, 1, 113, 204)"><g clip-path="url(#8f87363885)"><g clip-path="url(#15eff65ac6)"><path fill="#004aad" d="M 28.152344 1 L 1.082031 3.019531 L 2.78125 1 Z M 28.152344 1 " fill-opacity="1" fill-rule="nonzero"/></g></g></g></g><g mask="url(#19764e8d8c)"><g transform="matrix(1, 0, 0, 1, 261, 208)"><g clip-path="url(#32c8b43ef2)"><g clip-path="url(#d7c43c0249)"><path fill="#004aad" d="M 13.527344 2.316406 L 1.136719 0.402344 L 11.988281 0.402344 Z M 13.527344 2.316406 " fill-opacity="1" fill-rule="nonzero"/></g></g></g></g><g clip-path="url(#ee28c8c8c9)"><g mask="url(#a90d449638)"><g transform="matrix(1, 0, 0, 1, 170, 110)"><g clip-path="url(#4de214a6e9)"><g clip-path="url(#e445b1b15a)"><path fill="#1800ad" d="M 41.242188 22.726562 C 36.351562 23.949219 30.445312 25.863281 30.445312 25.863281 L 27.414062 31.925781 C 27.414062 31.925781 21.511719 32.085938 20.609375 30.808594 C 19.757812 29.535156 16.195312 28.523438 16.195312 28.523438 L 8.800781 26.609375 C 8.800781 26.609375 1.195312 27.566406 0.824219 27.566406 L 0.824219 27.511719 L 23.003906 0.335938 Z M 41.242188 22.726562 " fill-opacity="1" fill-rule="nonzero"/></g></g></g></g></g><g mask="url(#7d548ac560)"><g transform="matrix(1, 0, 0, 1, 209, 138)"><g clip-path="url(#c37861b9e0)"><g clip-path="url(#e48349fbcf)"><path fill="#004aad" d="M 8.835938 2.808594 C 4.265625 1.585938 0.539062 0.523438 0.539062 0.523438 L 6.976562 0.523438 Z M 8.835938 2.808594 " fill-opacity="1" fill-rule="nonzero"/></g></g></g></g><g mask="url(#c43b20954c)"><g transform="matrix(1, 0, 0, 1, 206, 248)"><g clip-path="url(#590c3c0af8)"><g clip-path="url(#fca755c4f1)"><path fill="#004aad" d="M 56.871094 0.878906 L 1.179688 0.878906 L 28.019531 2.371094 Z M 56.871094 0.878906 " fill-opacity="1" fill-rule="nonzero"/></g></g></g></g><g clip-path="url(#dc41df1366)"><g mask="url(#97bc8d33ab)"><g transform="matrix(1, 0, 0, 1, 192, 110)"><g clip-path="url(#0be7f51cca)"><g clip-path="url(#598b816586)"><path fill="#1800ad" d="M 1.003906 0.335938 L 46.207031 154.667969 L 19.9375 55.84375 Z M 1.003906 0.335938 " fill-opacity="1" fill-rule="nonzero"/></g></g></g></g></g><g clip-path="url(#04910c82cc)"><g mask="url(#a67b0758af)"><g transform="matrix(1, 0, 0, 1, 66, 110)"><g clip-path="url(#b05de897d3)"><g clip-path="url(#b2dfdb5cc2)"><path fill="#1800ad" d="M 127.003906 0.335938 L 1.066406 154.667969 L 63.105469 81.785156 Z M 127.003906 0.335938 " fill-opacity="1" fill-rule="nonzero"/></g></g></g></g></g><g mask="url(#068b6ea895)"><g transform="matrix(1, 0, 0, 1, 199, 118)"><g clip-path="url(#bd0cfb3acf)"><g clip-path="url(#a08e8d9f91)"><path fill="#1800ad" d="M 9.359375 14.324219 L 112.179688 141.074219 L 0.941406 0.851562 Z M 9.359375 14.324219 " fill-opacity="1" fill-rule="nonzero"/></g></g></g></g><g clip-path="url(#f311d9cf8e)"><path fill="#004aad" d="M 188.105469 264.667969 L 3.972656 264.667969 L 38.347656 222.515625 L 39.59375 221.035156 L 79.839844 171.726562 L 79.839844 171.6875 L 96.058594 151.816406 L 109.394531 168.1875 L 112.855469 172.425781 L 114.21875 174.101562 L 154.542969 223.527344 L 155.671875 224.925781 Z M 188.105469 264.667969 " fill-opacity="1" fill-rule="nonzero"/></g><g clip-path="url(#c7edb6e1ca)"><g mask="url(#ad21eeb6c8)"><g transform="matrix(1, 0, 0, 1, 3, 150)"><g clip-path="url(#6920efb537)"><g clip-path="url(#10603b679d)"><path fill="#004aad" d="M 126.113281 114.667969 L 0.972656 114.667969 L 35.347656 72.515625 L 36.59375 71.035156 L 93.058594 1.816406 Z M 126.113281 114.667969 " fill-opacity="1" fill-rule="nonzero"/></g></g></g></g></g><g mask="url(#2e739d2957)"><g transform="matrix(1, 0, 0, 1, 79, 194)"><g clip-path="url(#84eaa1653f)"><g clip-path="url(#37f9c66099)"><path fill="#004aad" d="M 48.273438 0.902344 L 1.605469 0.902344 L 30.183594 2.628906 Z M 48.273438 0.902344 " fill-opacity="1" fill-rule="nonzero"/></g></g></g></g><g mask="url(#4201516e11)"><g transform="matrix(1, 0, 0, 1, 55, 234)"><g clip-path="url(#b682015b65)"><g clip-path="url(#358e6d4c15)"><path fill="#004aad" d="M 0.871094 0.542969 L 46.671875 0.542969 L 24.957031 2.164062 Z M 0.871094 0.542969 " fill-opacity="1" fill-rule="nonzero"/></g></g></g></g><g mask="url(#6975bb67b0)"><g transform="matrix(1, 0, 0, 1, 38, 220)"><g clip-path="url(#729e7e7122)"><g clip-path="url(#955d744fb6)"><path fill="#004aad" d="M 20.140625 1.035156 L 0.347656 2.515625 L 1.59375 1.035156 Z M 20.140625 1.035156 " fill-opacity="1" fill-rule="nonzero"/></g></g></g></g><g mask="url(#a04f1fac47)"><g transform="matrix(1, 0, 0, 1, 145, 222)"><g clip-path="url(#f67b785c2f)"><g clip-path="url(#15ca841e36)"><path fill="#004aad" d="M 10.671875 2.925781 L 1.609375 1.527344 L 9.542969 1.527344 Z M 10.671875 2.925781 " fill-opacity="1" fill-rule="nonzero"/></g></g></g></g><g mask="url(#fa3a8ec9dc)"><g transform="matrix(1, 0, 0, 1, 79, 150)"><g clip-path="url(#76663ac9c0)"><g clip-path="url(#00e88f88c9)"><path fill="#1800ad" d="M 30.394531 18.1875 C 26.820312 19.082031 22.5 20.484375 22.5 20.484375 L 20.285156 24.917969 C 20.285156 24.917969 15.96875 25.035156 15.308594 24.101562 C 14.6875 23.167969 12.082031 22.429688 12.082031 22.429688 L 6.675781 21.027344 C 6.675781 21.027344 1.113281 21.726562 0.839844 21.726562 L 0.839844 21.6875 L 17.058594 1.816406 Z M 30.394531 18.1875 " fill-opacity="1" fill-rule="nonzero"/></g></g></g></g><g mask="url(#78260de05d)"><g transform="matrix(1, 0, 0, 1, 107, 172)"><g clip-path="url(#57fe22c037)"><g clip-path="url(#e7c437a2aa)"><path fill="#004aad" d="M 7.21875 2.101562 C 3.875 1.207031 1.152344 0.429688 1.152344 0.429688 L 5.855469 0.429688 Z M 7.21875 2.101562 " fill-opacity="1" fill-rule="nonzero"/></g></g></g></g><g mask="url(#6426cd3890)"><g transform="matrix(1, 0, 0, 1, 105, 252)"><g clip-path="url(#542926aa81)"><g clip-path="url(#5b8d42031e)"><path fill="#004aad" d="M 42.148438 1.125 L 1.421875 1.125 L 21.050781 2.214844 Z M 42.148438 1.125 " fill-opacity="1" fill-rule="nonzero"/></g></g></g></g><g clip-path="url(#a95c435b8c)"><g mask="url(#bc557b05d7)"><g transform="matrix(1, 0, 0, 1, 95, 150)"><g clip-path="url(#7c5d2d888a)"><g clip-path="url(#74a72c0711)"><path fill="#1800ad" d="M 1.058594 1.816406 L 34.113281 114.667969 L 14.902344 42.40625 Z M 1.058594 1.816406 " fill-opacity="1" fill-rule="nonzero"/></g></g></g></g></g><g clip-path="url(#47fa464ab4)"><g mask="url(#a7acac2648)"><g transform="matrix(1, 0, 0, 1, 3, 150)"><g clip-path="url(#fb1c0db82a)"><g clip-path="url(#ecc6be4368)"><path fill="#1800ad" d="M 93.058594 1.816406 L 0.972656 114.667969 L 46.335938 61.375 Z M 93.058594 1.816406 " fill-opacity="1" fill-rule="nonzero"/></g></g></g></g></g><g mask="url(#2e3e98d78e)"><g transform="matrix(1, 0, 0, 1, 100, 157)"><g clip-path="url(#74cde3eca8)"><g clip-path="url(#2fde7fa0f0)"><path fill="#1800ad" d="M 7.289062 10.894531 L 82.46875 103.578125 L 1.132812 1.042969 Z M 7.289062 10.894531 " fill-opacity="1" fill-rule="nonzero"/></g></g></g></g><g clip-path="url(#28c5bff21f)"><path fill="#004aad" d="M 371.023438 264.667969 L 266.742188 264.667969 L 286.210938 240.796875 L 286.917969 239.957031 L 309.710938 212.035156 L 309.710938 212.011719 L 318.894531 200.757812 L 326.449219 210.03125 L 328.40625 212.429688 L 329.179688 213.378906 L 352.015625 241.367188 L 352.65625 242.160156 Z M 371.023438 264.667969 " fill-opacity="1" fill-rule="nonzero"/></g><g clip-path="url(#8f7b47217e)"><g mask="url(#3e924699ca)"><g transform="matrix(1, 0, 0, 1, 266, 199)"><g clip-path="url(#aec4a0d0ea)"><g clip-path="url(#b3ee9759c3)"><path fill="#004aad" d="M 71.613281 65.667969 L 0.742188 65.667969 L 20.210938 41.796875 L 20.917969 40.957031 L 52.894531 1.757812 Z M 71.613281 65.667969 " fill-opacity="1" fill-rule="nonzero"/></g></g></g></g></g><g mask="url(#913f588c8d)"><g transform="matrix(1, 0, 0, 1, 309, 224)"><g clip-path="url(#7a659e6920)"><g clip-path="url(#66fc189d85)"><path fill="#004aad" d="M 27.570312 1.15625 L 1.144531 1.15625 L 17.328125 2.136719 Z M 27.570312 1.15625 " fill-opacity="1" fill-rule="nonzero"/></g></g></g></g><g mask="url(#44d7ba6693)"><g transform="matrix(1, 0, 0, 1, 295, 247)"><g clip-path="url(#565345e6e5)"><g clip-path="url(#31ccd3bc6d)"><path fill="#004aad" d="M 1.132812 0.609375 L 27.074219 0.609375 L 14.777344 1.527344 Z M 1.132812 0.609375 " fill-opacity="1" fill-rule="nonzero"/></g></g></g></g><g mask="url(#03e0f7f6a0)"><g transform="matrix(1, 0, 0, 1, 286, 239)"><g clip-path="url(#145fcca4d5)"><g clip-path="url(#dbcbedf85a)"><path fill="#004aad" d="M 11.421875 0.957031 L 0.210938 1.796875 L 0.917969 0.957031 Z M 11.421875 0.957031 " fill-opacity="1" fill-rule="nonzero"/></g></g></g></g><g mask="url(#5e392342cf)"><g transform="matrix(1, 0, 0, 1, 347, 240)"><g clip-path="url(#f7c0ec73f7)"><g clip-path="url(#3ddb3c1781)"><path fill="#004aad" d="M 5.65625 2.160156 L 0.523438 1.367188 L 5.015625 1.367188 Z M 5.65625 2.160156 " fill-opacity="1" fill-rule="nonzero"/></g></g></g></g><g mask="url(#f1f8220722)"><g transform="matrix(1, 0, 0, 1, 308, 199)"><g clip-path="url(#fc32468722)"><path fill="#1800ad" d="M 18.449219 11.03125 C 16.421875 11.535156 13.976562 12.328125 13.976562 12.328125 L 12.722656 14.839844 C 12.722656 14.839844 10.277344 14.90625 9.902344 14.378906 C 9.550781 13.847656 8.074219 13.429688 8.074219 13.429688 L 5.015625 12.636719 C 5.015625 12.636719 1.863281 13.035156 1.710938 13.035156 L 1.710938 13.011719 L 10.894531 1.757812 Z M 18.449219 11.03125 " fill-opacity="1" fill-rule="nonzero"/></g></g></g><g mask="url(#fa636f8e0e)"><g transform="matrix(1, 0, 0, 1, 325, 212)"><g clip-path="url(#bc9a81fc6c)"><g clip-path="url(#468145e5e4)"><path fill="#004aad" d="M 4.179688 1.378906 C 2.285156 0.871094 0.742188 0.429688 0.742188 0.429688 L 3.40625 0.429688 Z M 4.179688 1.378906 " fill-opacity="1" fill-rule="nonzero"/></g></g></g></g><g mask="url(#4cfa398bcb)"><g transform="matrix(1, 0, 0, 1, 324, 257)"><g clip-path="url(#14c756936e)"><g clip-path="url(#b1ce60fe8f)"><path fill="#004aad" d="M 23.828125 1.128906 L 0.765625 1.128906 L 11.878906 1.746094 Z M 23.828125 1.128906 " fill-opacity="1" fill-rule="nonzero"/></g></g></g></g><g clip-path="url(#c3cce73c70)"><g mask="url(#3955efd921)"><g transform="matrix(1, 0, 0, 1, 318, 199)"><g clip-path="url(#6d681c6043)"><g clip-path="url(#95ba8e0774)"><path fill="#1800ad" d="M 0.894531 1.757812 L 19.613281 65.667969 L 8.734375 24.746094 Z M 0.894531 1.757812 " fill-opacity="1" fill-rule="nonzero"/></g></g></g></g></g><g clip-path="url(#388344df41)"><g mask="url(#83fb3bb2b2)"><g transform="matrix(1, 0, 0, 1, 266, 199)"><g clip-path="url(#97f60141ac)"><g clip-path="url(#6c3239505f)"><path fill="#1800ad" d="M 52.894531 1.757812 L 0.742188 65.667969 L 26.433594 35.488281 Z M 52.894531 1.757812 " fill-opacity="1" fill-rule="nonzero"/></g></g></g></g></g><g mask="url(#29930f7aac)"><g transform="matrix(1, 0, 0, 1, 321, 204)"><g clip-path="url(#8ad1383219)"><g clip-path="url(#3be4df7ea4)"><path fill="#1800ad" d="M 4.253906 5.863281 L 46.832031 58.351562 L 0.769531 0.285156 Z M 4.253906 5.863281 " fill-opacity="1" fill-rule="nonzero"/></g></g></g></g></svg>