<svg xmlns="http://www.w3.org/2000/svg" xmlns:xlink="http://www.w3.org/1999/xlink" width="500" zoomAndPan="magnify" viewBox="0 0 375 374.999991" height="500" preserveAspectRatio="xMidYMid meet" version="1.0"><defs><clipPath id="168e78e643"><path d="M 146.324219 4.492188 L 228 4.492188 L 228 370.492188 L 146.324219 370.492188 Z M 146.324219 4.492188 " clip-rule="nonzero"/></clipPath><clipPath id="f7a673c100"><path d="M 146.324219 119 L 225 119 L 225 363 L 146.324219 363 Z M 146.324219 119 " clip-rule="nonzero"/></clipPath><clipPath id="2d7e576b24"><path d="M 146.324219 109 L 149 109 L 149 117 L 146.324219 117 Z M 146.324219 109 " clip-rule="nonzero"/></clipPath><clipPath id="b68a75476b"><path d="M 146.324219 104 L 148 104 L 148 107 L 146.324219 107 Z M 146.324219 104 " clip-rule="nonzero"/></clipPath><clipPath id="b927caba5a"><path d="M 146.324219 143 L 148 143 L 148 146 L 146.324219 146 Z M 146.324219 143 " clip-rule="nonzero"/></clipPath><clipPath id="06209b5203"><path d="M 146.324219 236 L 148 236 L 148 239 L 146.324219 239 Z M 146.324219 236 " clip-rule="nonzero"/></clipPath><clipPath id="adc05f46b8"><path d="M 146.324219 130 L 148 130 L 148 133 L 146.324219 133 Z M 146.324219 130 " clip-rule="nonzero"/></clipPath><clipPath id="0a61ca4a93"><path d="M 146.324219 343 L 148 343 L 148 346 L 146.324219 346 Z M 146.324219 343 " clip-rule="nonzero"/></clipPath></defs><g clip-path="url(#168e78e643)"><path fill="#004aad" d="M 146.746094 119.378906 C 146.746094 118.421875 146.742188 117.460938 146.738281 116.503906 C 149.1875 115.53125 147.414062 113.488281 147.824219 111.992188 C 148.027344 111.25 148.347656 109.9375 146.71875 109.964844 C 146.71875 108.871094 146.71875 107.777344 146.714844 106.683594 C 147.265625 106.667969 147.8125 106.660156 147.863281 105.902344 C 147.90625 105.25 147.828125 104.6875 147 104.617188 C 147.472656 103.132812 148.625 102.867188 149.917969 103.15625 C 151.132812 103.425781 151.695312 104.363281 151.710938 105.585938 C 151.734375 107.90625 151.707031 110.222656 151.746094 112.542969 C 151.753906 113.027344 151.429688 113.78125 152.144531 113.945312 C 152.804688 114.101562 152.964844 113.328125 153.199219 112.894531 C 156.15625 107.371094 159.085938 101.828125 162.015625 96.289062 C 162.554688 95.265625 162.957031 94.148438 163.617188 93.210938 C 166.742188 88.757812 167.472656 83.800781 167.046875 78.503906 C 166.742188 74.710938 167.347656 70.875 166.671875 67.082031 C 166.519531 66.234375 166.949219 65.492188 167.25 64.734375 C 169.210938 59.738281 172.710938 55.636719 175.210938 50.945312 C 179.820312 42.28125 183.558594 33.347656 184.867188 23.539062 C 185.011719 22.464844 184.980469 21.363281 185.046875 20.277344 C 185.136719 18.824219 185.027344 17.640625 183.605469 16.585938 C 181.777344 15.230469 181.824219 12.707031 183.695312 11.285156 C 185.191406 10.152344 185.851562 8.878906 186.042969 7.109375 C 186.136719 6.222656 186.617188 5.378906 186.9375 4.472656 C 187.601562 4.949219 187.664062 5.617188 187.808594 6.175781 C 188.3125 8.117188 188.742188 9.898438 190.621094 11.265625 C 192.390625 12.554688 192.070312 15.316406 190.222656 16.8125 C 189.285156 17.566406 189.089844 18.300781 189.113281 19.390625 C 189.351562 30.152344 193.125 39.894531 197.738281 49.390625 C 199.617188 53.257812 201.957031 56.863281 204.257812 60.488281 C 205.894531 63.066406 207.039062 65.613281 206.757812 68.988281 C 206.285156 74.679688 206.601562 80.433594 206.566406 86.160156 C 206.558594 86.960938 206.933594 87.621094 207.265625 88.269531 C 211.382812 96.414062 215.53125 104.542969 219.675781 112.671875 C 219.828125 112.976562 220.011719 113.265625 220.164062 113.570312 C 220.425781 114.089844 220.886719 114.140625 221.378906 114.097656 C 222.148438 114.027344 221.898438 113.421875 221.902344 113.003906 C 221.925781 110.683594 221.898438 108.367188 221.929688 106.046875 C 221.953125 104.101562 222.875 103.058594 224.496094 103.050781 C 226.070312 103.046875 227.046875 104.121094 227.074219 106.074219 C 227.125 109.621094 227.0625 113.167969 227.125 116.710938 C 228.550781 199.277344 227.382812 281.847656 227.765625 364.414062 C 227.765625 364.890625 227.773438 365.371094 227.761719 365.847656 C 227.703125 369.035156 226.316406 370.46875 223.121094 370.476562 C 213.503906 370.5 203.886719 370.480469 194.269531 370.480469 C 180.289062 370.472656 166.308594 370.457031 152.324219 370.472656 C 147.71875 370.476562 146.480469 369.296875 146.492188 364.699219 C 146.496094 363.957031 146.574219 363.214844 146.617188 362.46875 C 148.070312 362.335938 149.523438 362.203125 150.972656 362.070312 C 151.007812 362.949219 151.027344 363.832031 151.085938 364.710938 C 151.105469 365.03125 151.15625 365.574219 151.308594 365.621094 C 152.628906 366.015625 154.015625 365.917969 155.328125 365.71875 C 156.488281 365.539062 155.925781 364.355469 155.925781 363.65625 C 155.960938 342.761719 155.953125 321.867188 155.953125 300.972656 C 155.953125 299.546875 156.445312 297.773438 155.78125 296.777344 C 154.957031 295.542969 152.988281 296.597656 151.5625 296.207031 C 151.578125 294.882812 151.128906 294.378906 149.679688 294.792969 C 148.3125 295.183594 147.332031 294.097656 147.609375 292.695312 C 147.726562 292.105469 147.992188 291.539062 148.203125 290.96875 C 148.371094 290.507812 148.144531 289.6875 148.945312 289.757812 C 149.710938 289.824219 149.480469 290.578125 149.507812 291.078125 C 149.570312 292.105469 150.078125 292.835938 151.089844 292.851562 C 152.042969 292.863281 153.386719 293.507812 153.714844 291.8125 C 154.6875 291.539062 156.074219 292.265625 156.066406 290.101562 C 156.054688 287.949219 155.429688 287.253906 153.398438 287.546875 C 152.671875 287.652344 151.921875 287.585938 151.183594 287.59375 C 150.679688 287.402344 150.128906 287.28125 149.679688 286.992188 C 149.0625 286.59375 148.355469 286.144531 148.359375 285.304688 C 148.359375 284.460938 149.148438 284.253906 149.765625 284.023438 C 150.347656 283.808594 150.945312 283.683594 151.183594 283.007812 C 151.796875 283 152.410156 282.988281 153.023438 282.980469 C 155.933594 282.957031 155.945312 282.957031 155.945312 280.089844 C 155.949219 254.476562 155.929688 228.863281 155.988281 203.25 C 155.988281 201.980469 155.636719 201.546875 154.480469 201.5625 C 154.152344 200.246094 153.449219 198.824219 155.671875 198.414062 C 156.128906 198.328125 156.046875 197.617188 156.0625 197.152344 C 156.875 197.109375 157.691406 197.035156 158.503906 197.035156 C 179.414062 197.019531 200.324219 197 221.234375 197.035156 C 222.773438 197.035156 223.300781 196.6875 223.289062 195.019531 C 223.214844 183.371094 223.257812 171.726562 223.261719 160.078125 C 223.261719 150.746094 223.253906 141.417969 223.257812 132.085938 C 223.257812 131.136719 223.453125 130.09375 221.953125 130.210938 C 222.007812 128.625 222.671875 127.28125 223.496094 125.953125 C 224.140625 124.917969 224.835938 123.667969 222.910156 123.0625 C 222.914062 122.515625 222.914062 121.964844 222.914062 121.417969 C 223.25 121.34375 223.804688 121.546875 223.808594 121.011719 C 223.808594 120.476562 223.25 120.679688 222.914062 120.605469 C 222.996094 119.265625 222.472656 118.824219 221.039062 118.839844 C 212.523438 118.925781 204.003906 118.898438 195.484375 118.894531 C 181.511719 118.890625 167.542969 118.867188 153.574219 118.882812 C 152.808594 118.882812 151.695312 118.375 151.496094 119.789062 C 150.625 119.714844 150.300781 120.140625 150.3125 120.980469 C 150.320312 121.65625 150.015625 122.1875 149.253906 122.160156 C 148.609375 122.136719 148.378906 121.652344 148.292969 121.066406 C 148.15625 120.167969 147.953125 119.304688 146.746094 119.378906 Z M 187.171875 201.65625 C 187.171875 201.652344 187.171875 201.648438 187.171875 201.648438 C 178.988281 201.648438 170.804688 201.695312 162.625 201.605469 C 160.96875 201.589844 160.453125 201.9375 160.464844 203.695312 C 160.546875 215.421875 160.5 227.152344 160.488281 238.882812 C 160.484375 243.472656 160.476562 243.394531 165.167969 243.496094 C 166.8125 243.535156 167.339844 243.179688 167.320312 241.417969 C 167.210938 231.1875 167.238281 220.960938 167.230469 210.730469 C 167.230469 209.988281 167.230469 209.222656 167.398438 208.503906 C 167.652344 207.394531 168.390625 206.71875 169.59375 206.777344 C 170.761719 206.835938 171.5 207.484375 171.746094 208.613281 C 171.859375 209.136719 171.859375 209.695312 171.859375 210.238281 C 171.871094 219.921875 171.878906 229.605469 171.882812 239.285156 C 171.882812 243.507812 171.882812 243.433594 176.121094 243.511719 C 177.707031 243.542969 178.160156 243.136719 178.148438 241.5 C 178.058594 231.273438 178.09375 221.042969 178.089844 210.8125 C 178.089844 210.132812 178.0625 209.445312 178.136719 208.769531 C 178.265625 207.609375 178.933594 206.878906 180.113281 206.796875 C 181.359375 206.707031 182.246094 207.304688 182.515625 208.542969 C 182.667969 209.265625 182.636719 210.03125 182.636719 210.78125 C 182.652344 221.078125 182.683594 231.375 182.632812 241.671875 C 182.625 243.078125 182.945312 243.613281 184.421875 243.492188 C 186.046875 243.359375 187.699219 243.351562 189.324219 243.484375 C 190.859375 243.609375 191.25 243.113281 191.242188 241.570312 C 191.171875 231.273438 191.214844 220.976562 191.226562 210.679688 C 191.226562 209.996094 191.203125 209.3125 191.277344 208.636719 C 191.394531 207.550781 192.0625 206.875 193.121094 206.753906 C 194.242188 206.628906 195.175781 207.082031 195.507812 208.226562 C 195.714844 208.925781 195.742188 209.699219 195.742188 210.4375 C 195.753906 220.121094 195.742188 229.804688 195.742188 239.488281 C 195.742188 243.476562 195.753906 243.375 199.808594 243.523438 C 201.589844 243.589844 201.894531 242.996094 201.882812 241.355469 C 201.804688 231.058594 201.839844 220.761719 201.839844 210.464844 C 201.839844 209.917969 201.820312 209.371094 201.871094 208.828125 C 201.988281 207.53125 202.808594 206.867188 204.023438 206.777344 C 205.292969 206.6875 206.078125 207.417969 206.328125 208.632812 C 206.453125 209.226562 206.40625 209.855469 206.40625 210.46875 C 206.402344 219.671875 206.375 228.878906 206.40625 238.085938 C 206.414062 239.828125 205.609375 242.214844 206.777344 243.148438 C 207.875 244.023438 210.164062 243.34375 211.917969 243.476562 C 213.3125 243.582031 213.734375 243.179688 213.722656 241.699219 C 213.652344 228.945312 213.65625 216.195312 213.714844 203.441406 C 213.722656 202.007812 213.367188 201.613281 211.925781 201.625 C 203.675781 201.691406 195.425781 201.65625 187.171875 201.65625 Z M 186.964844 296.25 C 186.964844 296.253906 186.964844 296.261719 186.964844 296.265625 C 178.78125 296.265625 170.597656 296.308594 162.414062 296.226562 C 160.878906 296.214844 160.492188 296.613281 160.5 298.148438 C 160.558594 308.304688 160.503906 318.464844 160.496094 328.628906 C 160.488281 333.328125 160.5 333.246094 165.125 333.355469 C 166.800781 333.398438 167.320312 332.984375 167.304688 331.257812 C 167.214844 322.324219 167.253906 313.390625 167.25 304.460938 C 167.25 303.640625 167.203125 302.824219 167.507812 302.035156 C 167.90625 301.011719 168.660156 300.5625 169.730469 300.585938 C 170.753906 300.613281 171.40625 301.1875 171.667969 302.113281 C 171.847656 302.753906 171.875 303.457031 171.875 304.128906 C 171.894531 312.378906 171.882812 320.632812 171.902344 328.882812 C 171.914062 333.378906 171.9375 333.308594 176.351562 333.371094 C 177.847656 333.390625 178.128906 332.890625 178.121094 331.515625 C 178.070312 322.449219 178.101562 313.378906 178.109375 304.308594 C 178.109375 303.695312 178.09375 303.078125 178.164062 302.472656 C 178.304688 301.292969 179.003906 300.621094 180.191406 300.570312 C 181.34375 300.523438 182.179688 301.070312 182.527344 302.171875 C 182.6875 302.675781 182.664062 303.25 182.664062 303.789062 C 182.667969 312.996094 182.695312 322.199219 182.625 331.40625 C 182.617188 332.859375 182.851562 333.527344 184.492188 333.363281 C 186.113281 333.199219 187.769531 333.21875 189.394531 333.34375 C 190.84375 333.453125 191.210938 332.960938 191.203125 331.535156 C 191.152344 322.464844 191.199219 313.394531 191.21875 304.328125 C 191.21875 303.648438 191.199219 302.953125 191.320312 302.289062 C 191.511719 301.234375 192.183594 300.597656 193.289062 300.554688 C 194.347656 300.515625 195.191406 300.964844 195.53125 301.984375 C 195.738281 302.609375 195.746094 303.320312 195.75 303.992188 C 195.765625 312.445312 195.761719 320.902344 195.765625 329.359375 C 195.765625 333.328125 195.769531 333.246094 199.636719 333.34375 C 201.335938 333.386719 201.953125 333.074219 201.925781 331.15625 C 201.792969 322.226562 201.855469 313.292969 201.859375 304.359375 C 201.859375 303.613281 201.839844 302.835938 202.035156 302.128906 C 202.308594 301.113281 203.085938 300.554688 204.167969 300.554688 C 205.171875 300.554688 205.882812 301.089844 206.175781 302.007812 C 206.378906 302.636719 206.398438 303.34375 206.398438 304.015625 C 206.40625 311.925781 206.386719 319.835938 206.394531 327.746094 C 206.398438 329.507812 205.824219 331.855469 206.722656 332.878906 C 207.777344 334.082031 210.191406 333.121094 212.003906 333.289062 C 213.308594 333.40625 213.722656 332.984375 213.71875 331.597656 C 213.65625 320.414062 213.660156 309.230469 213.722656 298.046875 C 213.730469 296.621094 213.363281 296.203125 211.921875 296.214844 C 203.601562 296.28125 195.28125 296.25 186.964844 296.25 Z M 157.636719 113.945312 C 176.976562 113.945312 196.097656 113.945312 215.34375 113.945312 C 211.613281 106.480469 207.949219 99.191406 204.339844 91.878906 C 203.980469 91.152344 203.5 91.105469 202.875 91.105469 C 192.042969 91.109375 181.210938 91.117188 170.378906 91.097656 C 169.59375 91.09375 169.199219 91.339844 168.847656 92.066406 C 167.25 95.371094 165.589844 98.652344 163.910156 101.917969 C 161.867188 105.894531 159.777344 109.847656 157.636719 113.945312 Z M 186.769531 365.820312 C 191.265625 365.820312 195.757812 365.789062 200.253906 365.84375 C 201.417969 365.855469 201.917969 365.644531 201.910156 364.300781 C 201.84375 355.992188 201.851562 347.683594 201.90625 339.375 C 201.914062 338.160156 201.492188 337.90625 200.382812 337.910156 C 191.390625 337.949219 182.402344 337.953125 173.410156 337.921875 C 172.3125 337.917969 171.871094 338.128906 171.878906 339.359375 C 171.929688 347.671875 171.929688 355.980469 171.863281 364.289062 C 171.855469 365.597656 172.273438 365.859375 173.488281 365.84375 C 177.914062 365.773438 182.34375 365.816406 186.769531 365.820312 Z M 218.257812 242.140625 C 218.257812 245.957031 218.257812 249.777344 218.257812 253.59375 C 218.261719 262.796875 218.292969 272 218.238281 281.203125 C 218.230469 282.589844 218.523438 283.265625 220.023438 283.003906 C 220.488281 282.925781 220.988281 282.890625 221.449219 282.96875 C 223.082031 283.246094 223.308594 282.460938 223.304688 281.019531 C 223.257812 255.523438 223.261719 230.027344 223.253906 204.53125 C 223.25 201.640625 223.230469 201.75 220.328125 201.574219 C 218.597656 201.472656 218.203125 202.003906 218.214844 203.691406 C 218.289062 216.507812 218.257812 229.324219 218.257812 242.140625 Z M 186.996094 35.25 C 183.496094 45.554688 178.257812 54.875 172.054688 63.96875 C 182.050781 63.96875 191.597656 63.96875 201.582031 63.96875 C 195.058594 55.015625 190.433594 45.476562 186.996094 35.25 Z M 218.277344 331.179688 C 218.273438 331.179688 218.269531 331.179688 218.265625 331.179688 C 218.265625 342.085938 218.261719 352.996094 218.277344 363.902344 C 218.277344 364.496094 218.007812 365.519531 218.496094 365.605469 C 219.875 365.851562 221.351562 365.957031 222.71875 365.714844 C 223.738281 365.539062 223.246094 364.339844 223.246094 363.621094 C 223.285156 342.078125 223.289062 320.535156 223.300781 298.992188 C 223.300781 296.222656 223.304688 296.351562 220.46875 296.199219 C 218.640625 296.101562 218.214844 296.660156 218.230469 298.457031 C 218.320312 309.363281 218.277344 320.273438 218.277344 331.179688 Z M 191.207031 265.640625 C 191.207031 260.320312 191.171875 255 191.230469 249.683594 C 191.242188 248.484375 191.003906 247.953125 189.671875 248.035156 C 187.769531 248.152344 185.851562 248.113281 183.945312 248.070312 C 183.027344 248.050781 182.636719 248.265625 182.640625 249.308594 C 182.679688 260.085938 182.675781 270.859375 182.636719 281.632812 C 182.632812 282.761719 183.050781 283.023438 184.074219 282.988281 C 185.84375 282.921875 187.625 282.878906 189.390625 282.988281 C 190.789062 283.070312 191.265625 282.671875 191.238281 281.1875 C 191.144531 276.007812 191.199219 270.824219 191.207031 265.640625 Z M 213.695312 265.695312 C 213.683594 265.695312 213.675781 265.695312 213.664062 265.695312 C 213.664062 261.542969 213.710938 257.386719 213.644531 253.230469 C 213.617188 251.5625 214.433594 249.289062 213.269531 248.386719 C 212.1875 247.550781 210.015625 248.179688 208.332031 248.042969 C 206.867188 247.925781 206.351562 248.339844 206.367188 249.9375 C 206.441406 259.066406 206.371094 268.191406 206.402344 277.320312 C 206.40625 279.132812 205.617188 281.492188 206.769531 282.621094 C 207.921875 283.75 210.277344 282.785156 212.085938 282.984375 C 213.523438 283.144531 213.742188 282.5 213.722656 281.226562 C 213.65625 276.050781 213.695312 270.875 213.695312 265.695312 Z M 167.308594 265.460938 C 167.296875 265.460938 167.285156 265.460938 167.273438 265.460938 C 167.273438 261.308594 167.277344 257.152344 167.269531 253 C 167.265625 248.070312 167.261719 248.128906 162.296875 248.074219 C 160.871094 248.054688 160.480469 248.425781 160.492188 249.855469 C 160.550781 259.1875 160.515625 268.515625 160.511719 277.847656 C 160.511719 283.195312 160.511719 283.152344 165.910156 282.960938 C 167.125 282.917969 167.347656 282.507812 167.335938 281.398438 C 167.277344 276.085938 167.308594 270.773438 167.308594 265.460938 Z M 195.761719 265.492188 C 195.761719 265.492188 195.757812 265.492188 195.753906 265.492188 C 195.753906 269.988281 195.757812 274.484375 195.753906 278.984375 C 195.75 282.992188 195.75 282.894531 199.804688 283.054688 C 201.570312 283.125 201.894531 282.539062 201.882812 280.898438 C 201.804688 271.425781 201.855469 261.953125 201.855469 252.480469 C 201.855469 248.023438 201.851562 248.074219 197.429688 248.066406 C 196.132812 248.066406 195.703125 248.363281 195.726562 249.75 C 195.816406 254.996094 195.761719 260.242188 195.761719 265.492188 Z M 178.101562 265.5625 C 178.105469 265.5625 178.109375 265.5625 178.113281 265.5625 C 178.113281 261.136719 178.113281 256.707031 178.117188 252.277344 C 178.117188 248.046875 178.121094 248.136719 173.820312 248.050781 C 172.117188 248.015625 171.851562 248.644531 171.863281 250.144531 C 171.929688 259.617188 171.90625 269.089844 171.914062 278.5625 C 171.917969 283.039062 171.917969 282.964844 176.394531 283 C 177.9375 283.011719 178.144531 282.421875 178.125 281.101562 C 178.0625 275.921875 178.101562 270.742188 178.101562 265.5625 Z M 206.398438 351.855469 C 206.398438 354.714844 206.351562 357.574219 206.417969 360.429688 C 206.453125 362.175781 205.632812 364.550781 206.800781 365.484375 C 207.890625 366.363281 210.175781 365.683594 211.925781 365.832031 C 213.382812 365.960938 213.726562 365.417969 213.714844 364.011719 C 213.648438 357.140625 213.691406 350.265625 213.695312 343.390625 C 213.695312 337.683594 213.695312 337.714844 207.867188 337.890625 C 206.71875 337.925781 206.359375 338.238281 206.378906 339.398438 C 206.445312 343.550781 206.40625 347.703125 206.398438 351.855469 Z M 167.21875 351.855469 C 167.234375 351.855469 167.246094 351.855469 167.261719 351.855469 C 167.261719 348.863281 167.324219 345.867188 167.238281 342.875 C 167.191406 341.28125 168.042969 339.109375 166.90625 338.246094 C 165.855469 337.449219 163.777344 338.066406 162.160156 337.921875 C 160.804688 337.800781 160.472656 338.28125 160.484375 339.617188 C 160.546875 346.621094 160.503906 353.628906 160.496094 360.632812 C 160.492188 366 160.496094 365.953125 165.800781 365.839844 C 167.011719 365.8125 167.253906 365.398438 167.242188 364.300781 C 167.1875 360.152344 167.21875 356.003906 167.21875 351.855469 Z M 184.578125 77.882812 C 184.585938 77.882812 184.589844 77.882812 184.59375 77.882812 C 184.59375 75.429688 184.480469 72.972656 184.636719 70.53125 C 184.734375 68.960938 183.960938 68.808594 182.816406 68.972656 C 181.796875 69.125 180.253906 68.246094 180.308594 70.488281 C 180.429688 75.324219 180.433594 80.160156 180.339844 84.992188 C 180.3125 86.578125 181.230469 86.484375 182.148438 86.324219 C 183.050781 86.160156 184.664062 87.222656 184.597656 85.03125 C 184.523438 82.652344 184.578125 80.265625 184.578125 77.882812 Z M 176.015625 77.832031 C 176.011719 77.832031 176.007812 77.832031 176.003906 77.832031 C 176.003906 75.382812 175.871094 72.917969 176.046875 70.480469 C 176.171875 68.710938 175.191406 68.742188 174.058594 68.902344 C 173.003906 69.050781 171.347656 68.082031 171.421875 70.472656 C 171.554688 74.828125 171.484375 79.1875 171.496094 83.546875 C 171.503906 86.46875 171.5 86.398438 174.464844 86.410156 C 175.734375 86.414062 176.097656 86.023438 176.042969 84.777344 C 175.945312 82.464844 176.015625 80.148438 176.015625 77.832031 Z M 197.585938 77.621094 C 197.589844 77.621094 197.59375 77.621094 197.59375 77.621094 C 197.59375 80 197.722656 82.390625 197.550781 84.757812 C 197.433594 86.339844 198.21875 86.507812 199.339844 86.304688 C 200.355469 86.121094 202.0625 87.257812 202 84.8125 C 201.886719 80.460938 201.980469 76.109375 201.980469 71.757812 C 201.980469 68.832031 201.976562 68.902344 199.027344 68.925781 C 197.808594 68.9375 197.542969 69.394531 197.570312 70.484375 C 197.628906 72.863281 197.585938 75.242188 197.585938 77.621094 Z M 192.960938 77.640625 C 192.96875 77.640625 192.976562 77.640625 192.984375 77.640625 C 192.984375 75.1875 192.894531 72.730469 193.019531 70.285156 C 193.085938 68.957031 192.464844 68.691406 191.46875 68.945312 C 190.515625 69.183594 188.800781 67.953125 188.8125 70.253906 C 188.84375 75.160156 188.882812 80.070312 188.796875 84.976562 C 188.769531 86.476562 189.558594 86.546875 190.5625 86.335938 C 191.46875 86.144531 193.058594 87.175781 192.980469 85.003906 C 192.890625 82.550781 192.960938 80.097656 192.960938 77.640625 Z M 186.972656 287.558594 C 186.972656 287.5625 186.972656 287.566406 186.972656 287.566406 C 186.160156 287.566406 185.332031 287.664062 184.535156 287.546875 C 182.917969 287.308594 182.550781 288.023438 182.691406 289.488281 C 182.804688 290.675781 182.375 291.988281 184.441406 291.746094 C 186.046875 291.558594 187.699219 291.632812 189.320312 291.761719 C 190.800781 291.878906 191.289062 291.453125 191.292969 289.882812 C 191.300781 288.132812 190.988281 287.1875 189.003906 287.539062 C 188.347656 287.65625 187.652344 287.558594 186.972656 287.558594 Z M 209.914062 291.710938 C 209.914062 291.710938 209.914062 291.707031 209.914062 291.703125 C 210.59375 291.703125 211.285156 291.628906 211.953125 291.71875 C 213.398438 291.917969 213.671875 291.3125 213.78125 289.925781 C 213.945312 287.867188 213.214844 287.3125 211.304688 287.554688 C 210.101562 287.707031 208.863281 287.574219 207.640625 287.589844 C 207.128906 287.59375 206.605469 287.449219 206.390625 288.242188 C 205.742188 290.652344 206.46875 291.707031 208.898438 291.710938 C 209.238281 291.714844 209.578125 291.710938 209.914062 291.710938 Z M 163.851562 291.699219 C 164.191406 291.699219 164.542969 291.648438 164.871094 291.710938 C 166.9375 292.089844 167.617188 291.269531 167.429688 289.195312 C 167.324219 288.035156 167.226562 287.441406 165.871094 287.558594 C 164.449219 287.683594 163.011719 287.589844 161.582031 287.59375 C 161.097656 287.59375 160.707031 287.578125 160.527344 288.238281 C 159.875 290.664062 160.597656 291.710938 163.03125 291.707031 C 163.304688 291.703125 163.578125 291.703125 163.851562 291.699219 Z M 175.035156 287.585938 C 171.652344 287.582031 171.683594 287.578125 171.914062 290.660156 C 171.96875 291.398438 172.105469 291.769531 172.941406 291.734375 C 174.226562 291.679688 175.515625 291.734375 176.800781 291.71875 C 177.25 291.714844 177.753906 291.84375 178.042969 291.289062 C 178.972656 289.507812 177.839844 287.582031 175.847656 287.585938 C 175.578125 287.585938 175.304688 287.585938 175.035156 287.585938 Z M 198.671875 291.722656 C 198.671875 291.722656 198.671875 291.71875 198.671875 291.71875 C 199.421875 291.71875 200.171875 291.714844 200.921875 291.71875 C 201.433594 291.71875 201.765625 291.628906 201.902344 290.980469 C 202.457031 288.386719 201.855469 287.578125 199.269531 287.601562 C 198.453125 287.605469 197.632812 287.570312 196.816406 287.605469 C 196.503906 287.617188 195.925781 287.742188 195.917969 287.847656 C 195.832031 288.992188 195.652344 290.179688 195.871094 291.277344 C 196.035156 292.117188 197.03125 291.609375 197.652344 291.714844 C 197.984375 291.769531 198.332031 291.722656 198.671875 291.722656 Z M 220.828125 291.726562 C 222.257812 291.957031 223.375 291.914062 223.375 289.480469 C 223.375 286.542969 221.453125 287.832031 220.210938 287.578125 C 217.945312 287.113281 218.429688 288.734375 218.265625 290.042969 C 218 292.136719 219.363281 291.75 220.828125 291.726562 Z M 220.828125 291.726562 " fill-opacity="1" fill-rule="evenodd"/></g><g clip-path="url(#f7a673c100)"><path fill="#004aad" d="M 153.714844 291.8125 C 153.386719 293.503906 152.042969 292.863281 151.09375 292.851562 C 150.078125 292.835938 149.574219 292.105469 149.511719 291.078125 C 149.480469 290.578125 149.710938 289.824219 148.949219 289.757812 C 148.148438 289.6875 148.371094 290.507812 148.203125 290.96875 C 147.992188 291.539062 147.730469 292.105469 147.613281 292.695312 C 147.335938 294.097656 148.316406 295.183594 149.683594 294.792969 C 151.132812 294.378906 151.578125 294.878906 151.566406 296.207031 C 150.710938 296.8125 151.097656 297.714844 151.097656 298.472656 C 151.066406 309.652344 151.085938 320.832031 151.070312 332.011719 C 151.054688 342.03125 151.007812 352.050781 150.976562 362.066406 C 149.523438 362.203125 148.070312 362.335938 146.621094 362.46875 C 146.4375 356.746094 146.464844 351.019531 146.640625 345.296875 C 147.261719 344.609375 147.261719 343.925781 146.640625 343.242188 C 146.601562 341.132812 146.53125 339.027344 146.53125 336.917969 C 146.53125 304.78125 146.539062 272.644531 146.550781 240.507812 C 146.550781 239.828125 146.613281 239.152344 146.644531 238.472656 C 147.257812 237.789062 147.261719 237.105469 146.644531 236.421875 C 146.605469 228.121094 146.539062 219.820312 146.535156 211.519531 C 146.519531 190.351562 146.527344 169.183594 146.535156 148.011719 C 146.535156 147.335938 146.601562 146.660156 146.636719 145.980469 C 147.277344 145.160156 147.273438 144.339844 146.640625 143.515625 C 146.460938 139.699219 146.472656 135.882812 146.636719 132.066406 C 147.265625 131.378906 147.265625 130.695312 146.636719 130.007812 C 146.671875 126.464844 146.710938 122.921875 146.746094 119.375 C 147.953125 119.304688 148.15625 120.167969 148.292969 121.066406 C 148.382812 121.652344 148.609375 122.136719 149.253906 122.160156 C 150.019531 122.1875 150.324219 121.65625 150.3125 120.980469 C 150.300781 120.136719 150.625 119.710938 151.496094 119.785156 C 151.523438 120.585938 151.574219 121.390625 151.578125 122.191406 C 151.589844 125.550781 151.585938 125.546875 154.867188 125.578125 C 155.398438 125.582031 155.933594 125.640625 156.46875 125.675781 C 156.765625 126.617188 157.5625 126.3125 158.183594 126.316406 C 171.640625 126.328125 185.101562 126.328125 198.558594 126.316406 C 199.179688 126.316406 199.980469 126.613281 200.273438 125.671875 C 200.675781 125.671875 201.082031 125.671875 201.488281 125.675781 C 202.039062 126.671875 202.589844 126.671875 203.136719 125.671875 C 204.089844 125.675781 205.039062 125.675781 205.988281 125.679688 C 206.132812 126.265625 206.582031 126.328125 207.082031 126.328125 C 210.316406 126.324219 213.546875 126.324219 216.777344 126.328125 C 217.277344 126.328125 217.726562 126.265625 217.871094 125.679688 C 218.609375 125.644531 219.359375 125.496094 220.074219 125.601562 C 222.09375 125.898438 223.234375 125.328125 222.914062 123.058594 C 224.839844 123.667969 224.144531 124.914062 223.5 125.949219 C 222.671875 127.28125 222.011719 128.621094 221.953125 130.207031 C 221.140625 130.179688 220.328125 130.152344 219.515625 130.125 C 216.914062 129.269531 214.316406 129.285156 211.714844 130.113281 C 211.039062 130.304688 210.367188 130.308594 209.691406 130.113281 C 207.910156 129.304688 206.128906 129.3125 204.347656 130.109375 C 198.625 130.304688 192.902344 130.351562 187.179688 130.117188 C 185.742188 129.136719 184.117188 129.710938 182.597656 129.667969 C 181.269531 129.628906 179.800781 129.0625 178.5625 130.101562 C 177.890625 130.292969 177.214844 130.289062 176.539062 130.097656 C 175.441406 129.3125 174.339844 129.304688 173.242188 130.105469 C 170.929688 130.320312 168.621094 130.304688 166.308594 130.109375 C 165.210938 129.300781 164.113281 129.3125 163.011719 130.101562 C 161.519531 130.289062 160.023438 130.296875 158.53125 130.097656 C 157.15625 129.304688 155.785156 129.28125 154.417969 130.113281 C 153.742188 130.308594 153.066406 130.304688 152.394531 130.109375 C 151.847656 129.304688 151.4375 129.457031 151.117188 130.289062 C 151.050781 130.738281 150.984375 131.1875 150.914062 131.640625 C 150.761719 131.75 150.515625 131.835938 150.476562 131.976562 C 150.390625 132.304688 150.65625 132.425781 150.9375 132.476562 C 150.972656 133.15625 151.039062 133.832031 151.039062 134.511719 C 151.050781 153.117188 151.050781 171.722656 151.0625 190.328125 C 151.066406 192.570312 151.140625 194.816406 151.183594 197.058594 C 152.148438 198.300781 153.285156 198.328125 154.429688 197.144531 C 154.976562 197.144531 155.519531 197.148438 156.066406 197.148438 C 156.050781 197.617188 156.132812 198.324219 155.675781 198.410156 C 153.449219 198.824219 154.15625 200.242188 154.480469 201.5625 C 153.75 201.585938 153.007812 201.691406 152.285156 201.609375 C 151.285156 201.496094 150.988281 202.007812 150.933594 202.851562 C 150.054688 203.550781 150.03125 204.242188 150.957031 204.917969 C 150.992188 205.871094 151.058594 206.820312 151.058594 207.773438 C 151.066406 230.875 151.0625 253.980469 151.070312 277.085938 C 151.070312 279.058594 151.144531 281.03125 151.183594 283.007812 C 150.949219 283.679688 150.351562 283.804688 149.765625 284.023438 C 149.152344 284.25 148.363281 284.460938 148.359375 285.300781 C 148.359375 286.144531 149.066406 286.59375 149.683594 286.992188 C 150.132812 287.277344 150.683594 287.398438 151.1875 287.59375 C 150.882812 291.636719 150.882812 291.636719 153.714844 291.8125 Z M 153.714844 291.8125 " fill-opacity="1" fill-rule="evenodd"/></g><g clip-path="url(#2d7e576b24)"><path fill="#004aad" d="M 146.71875 109.964844 C 148.347656 109.9375 148.027344 111.25 147.824219 111.992188 C 147.414062 113.488281 149.1875 115.53125 146.738281 116.503906 C 146.734375 114.324219 146.726562 112.144531 146.71875 109.964844 Z M 146.71875 109.964844 " fill-opacity="1" fill-rule="evenodd"/></g><g clip-path="url(#b68a75476b)"><path fill="#004aad" d="M 147 104.617188 C 147.828125 104.6875 147.90625 105.25 147.863281 105.902344 C 147.8125 106.660156 147.265625 106.667969 146.714844 106.683594 C 146.617188 105.96875 146.46875 105.246094 147 104.617188 Z M 147 104.617188 " fill-opacity="1" fill-rule="evenodd"/></g><g clip-path="url(#b927caba5a)"><path fill="#004aad" d="M 146.640625 143.515625 C 147.273438 144.339844 147.277344 145.164062 146.632812 145.980469 C 146.453125 145.160156 146.464844 144.339844 146.640625 143.515625 Z M 146.640625 143.515625 " fill-opacity="1" fill-rule="evenodd"/></g><g clip-path="url(#06209b5203)"><path fill="#004aad" d="M 146.644531 236.421875 C 147.257812 237.105469 147.257812 237.789062 146.644531 238.476562 C 146.46875 237.789062 146.46875 237.105469 146.644531 236.421875 Z M 146.644531 236.421875 " fill-opacity="1" fill-rule="evenodd"/></g><g clip-path="url(#adc05f46b8)"><path fill="#004aad" d="M 146.636719 130.007812 C 147.265625 130.695312 147.261719 131.382812 146.632812 132.066406 C 146.453125 131.382812 146.457031 130.695312 146.636719 130.007812 Z M 146.636719 130.007812 " fill-opacity="1" fill-rule="evenodd"/></g><g clip-path="url(#0a61ca4a93)"><path fill="#004aad" d="M 146.640625 343.242188 C 147.261719 343.925781 147.261719 344.609375 146.640625 345.296875 C 146.464844 344.609375 146.464844 343.925781 146.640625 343.242188 Z M 146.640625 343.242188 " fill-opacity="1" fill-rule="evenodd"/></g><path fill="#004aad" d="M 222.914062 121.414062 C 222.914062 121.144531 222.914062 120.875 222.914062 120.605469 C 223.25 120.675781 223.808594 120.476562 223.808594 121.011719 C 223.808594 121.546875 223.25 121.34375 222.914062 121.414062 Z M 222.914062 121.414062 " fill-opacity="1" fill-rule="evenodd"/><path fill="#004aad" d="M 156.464844 125.675781 C 164.210938 125.636719 171.953125 125.570312 179.695312 125.570312 C 186.554688 125.566406 193.414062 125.636719 200.273438 125.671875 C 199.976562 126.617188 199.179688 126.316406 198.558594 126.316406 C 185.101562 126.332031 171.640625 126.332031 158.183594 126.316406 C 157.5625 126.316406 156.765625 126.617188 156.464844 125.675781 Z M 156.464844 125.675781 " fill-opacity="1" fill-rule="evenodd"/><path fill="#004aad" d="M 205.988281 125.679688 C 209.949219 125.519531 213.910156 125.492188 217.871094 125.679688 C 217.726562 126.265625 217.277344 126.328125 216.777344 126.328125 C 213.546875 126.324219 210.3125 126.324219 207.082031 126.328125 C 206.582031 126.328125 206.132812 126.265625 205.988281 125.679688 Z M 205.988281 125.679688 " fill-opacity="1" fill-rule="evenodd"/><path fill="#004aad" d="M 187.179688 130.117188 C 184.308594 130.347656 181.433594 130.332031 178.5625 130.105469 C 179.800781 129.0625 181.269531 129.628906 182.59375 129.667969 C 184.117188 129.710938 185.742188 129.140625 187.179688 130.117188 Z M 187.179688 130.117188 " fill-opacity="1" fill-rule="evenodd"/><path fill="#004aad" d="M 219.511719 130.125 C 216.914062 130.394531 214.3125 130.339844 211.714844 130.113281 C 214.3125 129.289062 216.914062 129.269531 219.511719 130.125 Z M 219.511719 130.125 " fill-opacity="1" fill-rule="evenodd"/><path fill="#004aad" d="M 209.691406 130.113281 C 207.910156 130.335938 206.128906 130.328125 204.347656 130.109375 C 206.128906 129.3125 207.910156 129.304688 209.691406 130.113281 Z M 209.691406 130.113281 " fill-opacity="1" fill-rule="evenodd"/><path fill="#004aad" d="M 158.53125 130.101562 C 157.160156 130.308594 155.789062 130.34375 154.414062 130.113281 C 155.785156 129.28125 157.15625 129.308594 158.53125 130.101562 Z M 158.53125 130.101562 " fill-opacity="1" fill-rule="evenodd"/><path fill="#004aad" d="M 176.539062 130.101562 C 175.441406 130.320312 174.339844 130.332031 173.242188 130.105469 C 174.339844 129.304688 175.4375 129.3125 176.539062 130.101562 Z M 176.539062 130.101562 " fill-opacity="1" fill-rule="evenodd"/><path fill="#004aad" d="M 166.308594 130.109375 C 165.207031 130.34375 164.109375 130.339844 163.007812 130.105469 C 164.109375 129.3125 165.210938 129.300781 166.308594 130.109375 Z M 166.308594 130.109375 " fill-opacity="1" fill-rule="evenodd"/><path fill="#004aad" d="M 151.183594 197.0625 C 152.265625 197.089844 153.347656 197.117188 154.429688 197.144531 C 153.285156 198.332031 152.144531 198.300781 151.183594 197.0625 Z M 151.183594 197.0625 " fill-opacity="1" fill-rule="evenodd"/><path fill="#004aad" d="M 150.933594 202.855469 C 151.125 203.542969 151.113281 204.230469 150.957031 204.921875 C 150.03125 204.242188 150.054688 203.554688 150.933594 202.855469 Z M 150.933594 202.855469 " fill-opacity="1" fill-rule="evenodd"/><path fill="#004aad" d="M 201.488281 125.675781 C 202.035156 125.675781 202.585938 125.671875 203.136719 125.671875 C 202.589844 126.675781 202.039062 126.675781 201.488281 125.675781 Z M 201.488281 125.675781 " fill-opacity="1" fill-rule="evenodd"/><path fill="#004aad" d="M 152.390625 130.113281 C 151.964844 130.171875 151.542969 130.230469 151.117188 130.289062 C 151.433594 129.460938 151.847656 129.308594 152.390625 130.113281 Z M 152.390625 130.113281 " fill-opacity="1" fill-rule="evenodd"/><path fill="#004aad" d="M 150.914062 131.640625 C 150.921875 131.921875 150.929688 132.199219 150.9375 132.480469 C 150.65625 132.425781 150.386719 132.308594 150.476562 131.976562 C 150.511719 131.835938 150.761719 131.753906 150.914062 131.640625 Z M 150.914062 131.640625 " fill-opacity="1" fill-rule="evenodd"/><path fill="#004aad" d="M 186.90625 193.914062 C 178.453125 193.910156 169.996094 193.917969 161.542969 193.910156 C 157.484375 193.90625 155.785156 192.246094 155.785156 188.21875 C 155.769531 171.722656 155.769531 155.222656 155.785156 138.722656 C 155.789062 134.335938 157.386719 132.730469 161.660156 132.726562 C 178.363281 132.710938 195.066406 132.703125 211.769531 132.707031 C 216.652344 132.707031 218.175781 134.277344 218.179688 139.246094 C 218.1875 155.335938 218.191406 171.421875 218.1875 187.511719 C 218.1875 192.335938 216.613281 193.914062 211.859375 193.914062 C 203.539062 193.917969 195.222656 193.917969 186.90625 193.914062 Z M 186.933594 189.148438 C 186.933594 189.140625 186.933594 189.132812 186.933594 189.125 C 195.113281 189.125 203.292969 189.082031 211.472656 189.160156 C 213.082031 189.171875 213.675781 188.871094 213.667969 187.078125 C 213.601562 171.0625 213.613281 155.042969 213.683594 139.023438 C 213.691406 137.445312 213.074219 137.292969 211.773438 137.296875 C 195.480469 137.328125 179.1875 137.347656 162.898438 137.257812 C 160.890625 137.246094 160.285156 137.648438 160.300781 139.78125 C 160.394531 155.597656 160.363281 171.410156 160.292969 187.226562 C 160.289062 188.746094 160.636719 189.199219 162.191406 189.183594 C 170.4375 189.109375 178.6875 189.148438 186.933594 189.148438 Z M 186.933594 189.148438 " fill-opacity="1" fill-rule="evenodd"/><path fill="#004aad" d="M 186.253906 104.707031 C 187.167969 105.113281 187.691406 105.941406 188.351562 106.589844 C 190.558594 108.761719 190.542969 108.777344 188.34375 110.78125 C 186.082031 112.839844 186.085938 112.839844 183.875 110.765625 C 183.53125 110.441406 183.203125 110.089844 182.820312 109.816406 C 181.746094 109.050781 181.882812 108.382812 182.835938 107.597656 C 183.980469 106.65625 184.933594 105.488281 186.253906 104.707031 Z M 186.253906 104.707031 " fill-opacity="1" fill-rule="evenodd"/><path fill="#004aad" d="M 176.835938 108.3125 C 176.375 109.527344 175.6875 109.890625 175.140625 110.371094 C 172.335938 112.855469 172.433594 112.726562 169.644531 110.335938 C 167.976562 108.902344 168.175781 108.097656 169.699219 106.773438 C 172.386719 104.4375 172.304688 104.359375 174.980469 106.796875 C 175.621094 107.378906 176.320312 107.894531 176.835938 108.3125 Z M 176.835938 108.3125 " fill-opacity="1" fill-rule="evenodd"/><path fill="#004aad" d="M 200.878906 104.304688 C 201.582031 105.214844 202.21875 106.195312 203.003906 107.03125 C 204.871094 109.015625 204.902344 108.988281 202.910156 110.773438 C 200.605469 112.839844 200.605469 112.839844 198.351562 110.785156 C 195.957031 108.605469 195.949219 108.59375 198.390625 106.34375 C 199.027344 105.753906 199.566406 105.023438 200.878906 104.304688 Z M 200.878906 104.304688 " fill-opacity="1" fill-rule="evenodd"/><path fill="#004aad" d="M 203.058594 98.996094 C 202.332031 100.339844 201.253906 101.488281 199.972656 102.347656 C 199.09375 102.9375 198.550781 101.867188 197.980469 101.402344 C 194.679688 98.71875 194.707031 98.71875 197.976562 95.863281 C 198.691406 95.238281 199.25 94.972656 200.019531 95.761719 C 200.769531 96.535156 201.621094 97.210938 202.414062 97.949219 C 202.699219 98.21875 203.0625 98.453125 203.058594 98.996094 Z M 203.058594 98.996094 " fill-opacity="1" fill-rule="evenodd"/><path fill="#004aad" d="M 173.394531 102.441406 C 172.941406 102.480469 169.644531 99.625 169.597656 99.152344 C 169.546875 98.664062 173.085938 95.347656 173.675781 95.335938 C 174.117188 95.328125 177.257812 98.03125 177.328125 98.480469 C 177.40625 98.972656 174.011719 102.390625 173.394531 102.441406 Z M 173.394531 102.441406 " fill-opacity="1" fill-rule="evenodd"/><path fill="#004aad" d="M 190.039062 98.742188 C 189.566406 99.851562 188.566406 100.398438 187.902344 101.222656 C 186.746094 102.667969 185.679688 102.71875 184.566406 101.226562 C 184.527344 101.171875 184.46875 101.132812 184.417969 101.085938 C 181.632812 98.5625 181.671875 98.601562 184.402344 96.132812 C 185.285156 95.335938 185.902344 95.265625 186.796875 96.035156 C 187.863281 96.945312 189.144531 97.609375 190.039062 98.742188 Z M 190.039062 98.742188 " fill-opacity="1" fill-rule="evenodd"/><path fill="#004aad" d="M 162.488281 162.976562 C 162.417969 149.769531 173.546875 138.449219 186.683594 138.367188 C 199.792969 138.28125 211.21875 149.6875 211.273438 162.910156 C 211.324219 176.457031 200.234375 187.84375 186.980469 187.855469 C 173.34375 187.863281 162.5625 176.914062 162.488281 162.976562 Z M 193.8125 155.808594 C 193.003906 156.828125 192.183594 157.820312 191.414062 158.851562 C 190.222656 160.441406 188.722656 161.78125 188.800781 164.140625 C 188.847656 165.648438 186.785156 166.84375 185.140625 166.726562 C 183.347656 166.597656 181.875 165.203125 181.789062 163.453125 C 181.695312 161.644531 182.597656 160.476562 184.304688 159.957031 C 184.875 159.785156 185.523438 159.910156 185.949219 159.3125 C 187.402344 157.289062 188.875 155.285156 190.390625 153.199219 C 184.195312 151.796875 179.472656 154.082031 177.539062 159.257812 C 175.664062 164.265625 177.550781 169.816406 181.945312 172.214844 C 186.398438 174.644531 191.570312 173.480469 194.699219 169.34375 C 197.785156 165.261719 197.445312 159.378906 193.8125 155.808594 Z M 203.480469 174.316406 C 201.882812 173.464844 200.4375 172.726562 199.023438 171.929688 C 198.4375 171.601562 197.863281 171.289062 197.527344 172.097656 C 197.132812 173.058594 195.339844 173.316406 196.097656 174.816406 C 196.738281 176.085938 197.507812 177.285156 198.183594 178.539062 C 198.613281 179.34375 199.011719 179.4375 199.703125 178.769531 C 201.070312 177.449219 202.40625 176.109375 203.480469 174.316406 Z M 177.816406 174.648438 C 177.8125 173.878906 175.304688 171.714844 174.71875 171.921875 C 170.085938 173.542969 169.761719 175.214844 173.464844 178.421875 C 173.824219 178.734375 174.183594 179.050781 174.558594 179.34375 C 174.839844 179.558594 175.195312 179.738281 175.417969 179.316406 C 176.242188 177.753906 177.035156 176.175781 177.816406 174.648438 Z M 203.601562 160.59375 C 204.347656 160.59375 205.09375 160.605469 205.839844 160.589844 C 206.214844 160.582031 206.800781 160.699219 206.734375 160.101562 C 206.535156 158.265625 206.113281 156.324219 205.023438 154.960938 C 204.246094 153.988281 203.160156 155.699219 202.117188 155.976562 C 201.605469 156.113281 201.140625 156.4375 200.65625 156.679688 C 200.109375 156.949219 199.976562 157.25 200.113281 157.949219 C 200.628906 160.601562 200.570312 160.613281 203.601562 160.59375 Z M 185.089844 180.296875 C 184.835938 179.507812 185.648438 178.304688 184.730469 177.589844 C 183.027344 176.261719 181.273438 176.816406 180.207031 178.835938 C 178.519531 182.03125 178.519531 182.03125 181.972656 182.855469 C 185.101562 183.605469 185.101562 183.605469 185.089844 180.296875 Z M 170.308594 164.640625 C 166.484375 164.550781 166.484375 164.550781 167.3125 167.847656 C 168.148438 171.15625 168.144531 171.152344 171.121094 169.457031 C 171.472656 169.257812 171.820312 169.027344 172.199219 168.898438 C 173.21875 168.542969 173.246094 167.902344 173.222656 166.886719 C 173.164062 164.445312 171.679688 164.464844 170.308594 164.640625 Z M 170.261719 160.585938 C 171.820312 160.945312 173 160.617188 173.46875 158.304688 C 173.941406 155.96875 171.941406 156.523438 171.136719 155.714844 C 170.996094 155.574219 170.769531 155.527344 170.617188 155.394531 C 169.089844 154.039062 168.421875 154.933594 167.960938 156.398438 C 167.859375 156.722656 167.75 157.042969 167.652344 157.371094 C 166.722656 160.527344 166.722656 160.527344 170.261719 160.585938 Z M 178.269531 151.28125 C 177.800781 150.40625 177.421875 149.691406 177.03125 148.984375 C 175.28125 145.800781 175.941406 145.78125 173.011719 148.335938 C 170.375 150.636719 170.417969 150.6875 173.425781 152.523438 C 173.828125 152.773438 174.207031 153.0625 174.628906 153.269531 C 175.125 153.515625 175.59375 154.238281 176.21875 153.609375 C 176.957031 152.863281 177.613281 152.03125 178.269531 151.28125 Z M 185.03125 145.972656 C 184.972656 142.585938 184.972656 142.585938 182.59375 143.117188 C 178.773438 143.976562 178.84375 143.941406 180.636719 147.496094 C 181.40625 149.019531 182.183594 149.460938 183.914062 148.960938 C 186.054688 148.339844 184.59375 146.816406 185.03125 145.972656 Z M 203.015625 151.183594 C 202.71875 150.742188 202.503906 150.398438 202.265625 150.070312 C 199.382812 146.113281 198.832031 146.128906 196.492188 150.203125 C 196.394531 150.378906 196.296875 150.566406 196.167969 150.71875 C 195.535156 151.457031 195.886719 151.917969 196.410156 152.613281 C 197.335938 153.839844 198.117188 154.011719 199.382812 153.097656 C 200.417969 152.351562 201.652344 151.886719 203.015625 151.183594 Z M 190.855469 143.132812 C 189.59375 142.707031 189.355469 142.984375 189.273438 143.820312 C 188.875 148.015625 189.363281 149.222656 191.679688 149.40625 C 192.195312 149.449219 195.226562 145.617188 194.90625 144.949219 C 194.03125 143.109375 191.863281 143.742188 190.855469 143.132812 Z M 206.671875 166.28125 C 207.097656 164.746094 206.488281 164.707031 205.707031 164.664062 C 201.195312 164.417969 200.4375 164.753906 200.253906 167.214844 C 200.203125 167.851562 204.023438 170.835938 204.882812 170.453125 C 206.808594 169.59375 206.089844 167.320312 206.671875 166.28125 Z M 189.191406 180.140625 C 189.191406 180.773438 189.246094 181.253906 189.179688 181.71875 C 188.980469 183.136719 189.523438 183.558594 190.847656 183.0625 C 191.164062 182.945312 191.503906 182.898438 191.828125 182.816406 C 195.53125 181.859375 195.414062 181.917969 193.65625 178.539062 C 192.765625 176.828125 191.898438 176.386719 190.097656 177.164062 C 188.332031 177.925781 189.652344 179.316406 189.191406 180.140625 Z M 189.191406 180.140625 " fill-opacity="1" fill-rule="evenodd"/></svg>