<svg xmlns="http://www.w3.org/2000/svg" xmlns:xlink="http://www.w3.org/1999/xlink" width="500" zoomAndPan="magnify" viewBox="0 0 375 374.999991" height="500" preserveAspectRatio="xMidYMid meet" version="1.0"><defs><clipPath id="45ecd9a2e4"><path d="M 8 76.578125 L 368 76.578125 L 368 298.578125 L 8 298.578125 Z M 8 76.578125 " clip-rule="nonzero"/></clipPath></defs><g clip-path="url(#45ecd9a2e4)"><path fill="#004aad" d="M 8.296875 153.136719 C 8.296875 153.136719 16.890625 183.21875 46.972656 183.21875 C 77.050781 183.21875 111.820312 146.496094 124.710938 132.433594 C 137.601562 118.371094 168.855469 76.570312 203.625 76.570312 C 238.390625 76.570312 262.554688 114.941406 275.894531 130.480469 C 277.429688 132.269531 278.535156 134.261719 280.191406 134.679688 C 287.320312 136.480469 294.332031 139.222656 298.945312 139.464844 C 304.433594 139.757812 305 136.046875 309.101562 133.605469 C 313.027344 131.265625 318.476562 128.527344 318.476562 128.527344 C 318.476562 128.527344 316.914062 123.449219 309.101562 122.667969 C 301.285156 121.886719 296.597656 113.292969 294.644531 110.558594 C 292.691406 107.824219 293.082031 103.917969 296.992188 107.042969 C 300.898438 110.167969 306.367188 108.214844 309.882812 110.558594 C 313.398438 112.902344 318.867188 117.980469 323.554688 124.230469 C 328.242188 130.480469 325.898438 123.058594 329.414062 123.839844 C 332.929688 124.621094 333.710938 125.402344 340.351562 130.480469 C 346.992188 135.558594 358.714844 141.027344 363.402344 145.324219 C 368.089844 149.625 367.308594 150.40625 367.308594 152.75 C 367.308594 155.09375 363.792969 156.265625 360.277344 156.265625 C 356.761719 156.265625 358.714844 153.53125 355.980469 154.3125 C 353.246094 155.09375 348.164062 155.875 345.429688 155.484375 C 342.695312 155.09375 339.960938 160.171875 334.882812 159 C 329.804688 157.828125 329.023438 153.921875 326.289062 158.609375 C 323.554688 163.296875 312.226562 174.625 307.535156 176.578125 C 302.847656 178.53125 300.503906 190.253906 297.769531 191.421875 C 295.035156 192.59375 283.316406 195.722656 279.800781 198.457031 C 276.285156 201.191406 266.324219 216.328125 263.589844 220.625 C 260.851562 224.921875 255.722656 232.519531 253.820312 233.417969 C 250.109375 235.175781 246.542969 234.035156 245.128906 233.125 C 242.050781 231.144531 239.386719 223.113281 242.875 220.527344 C 243.347656 220.117188 244.199219 220.285156 244.207031 221.039062 C 244.140625 223.527344 243.996094 229.890625 248.9375 230.097656 C 253.621094 230.292969 252.84375 214.472656 254.015625 209.003906 C 255.1875 203.535156 259.484375 196.894531 259.09375 193.769531 C 258.703125 190.644531 247.765625 187.519531 245.8125 187.519531 C 243.859375 187.519531 238.78125 189.863281 236.828125 194.941406 C 234.875 200.019531 230.1875 203.535156 230.1875 209.394531 C 230.1875 215.253906 231.75 255.882812 234.875 261.351562 C 238 266.820312 246.203125 267.210938 249.71875 268.382812 C 253.234375 269.554688 305.582031 286.351562 308.707031 286.742188 C 311.832031 287.132812 312.988281 286.25 314.957031 285.960938 C 316.917969 285.675781 326.371094 290.570312 329.972656 292.761719 C 330.855469 293.078125 330.488281 294.40625 327.949219 293.546875 C 325.609375 293.019531 323.851562 293.671875 322.773438 293.773438 C 319.769531 294.0625 322.1875 298.449219 318.867188 298.074219 C 315.351562 297.671875 302.066406 291.820312 298.160156 291.429688 C 294.253906 291.039062 255.96875 284.789062 250.5 283.226562 C 245.03125 281.664062 229.015625 280.492188 226.671875 279.320312 C 224.328125 278.148438 221.984375 275.023438 218.859375 263.695312 C 215.734375 252.367188 207.140625 224.628906 204.792969 221.894531 C 202.449219 219.160156 195.027344 203.144531 195.027344 200.410156 C 195.027344 197.675781 191.511719 198.847656 188.386719 197.285156 C 185.261719 195.722656 166.121094 184.394531 161.824219 179.703125 C 157.523438 175.015625 143.070312 159.78125 143.070312 159.78125 C 143.070312 159.78125 96.972656 186.734375 84.863281 191.035156 C 72.753906 195.332031 55.171875 200.410156 39.546875 194.550781 C 26.402344 188.984375 6.964844 171.089844 8.292969 153.140625 Z M 8.296875 153.136719 " fill-opacity="1" fill-rule="evenodd"/></g></svg>