<svg xmlns="http://www.w3.org/2000/svg" xmlns:xlink="http://www.w3.org/1999/xlink" width="500" zoomAndPan="magnify" viewBox="0 0 375 374.999991" height="500" preserveAspectRatio="xMidYMid meet" version="1.0"><defs><clipPath id="653351e137"><path d="M 25.886719 20.457031 L 349.136719 20.457031 L 349.136719 354.207031 L 25.886719 354.207031 Z M 25.886719 20.457031 " clip-rule="nonzero"/></clipPath></defs><g clip-path="url(#653351e137)"><path fill="#004aad" d="M 187.785156 354.40625 L 29.117188 354.40625 L 29.117188 352.464844 C 29.117188 350.679688 29.296875 350.527344 31.382812 350.527344 L 33.644531 350.527344 L 33.644531 334.371094 L 38.8125 334.371094 L 38.8125 260.691406 L 37.292969 260.691406 C 35.789062 260.691406 35.773438 260.617188 36.058594 255.199219 L 36.347656 249.703125 L 25.886719 249.703125 L 25.886719 237.425781 L 37.519531 237.425781 L 37.519531 226.4375 L 42 226.4375 L 42.367188 213.1875 L 81.308594 213.019531 L 120.246094 212.855469 L 120.246094 189.597656 L 133.820312 189.597656 L 133.820312 186.734375 C 133.820312 184.257812 134.015625 183.84375 135.273438 183.664062 L 136.726562 183.457031 L 136.902344 168.152344 L 137.074219 152.84375 L 134.960938 152.640625 L 132.851562 152.4375 L 132.660156 147.691406 C 132.542969 144.796875 132.757812 142.597656 133.207031 142.050781 C 133.617188 141.5625 134.9375 140.972656 136.148438 140.746094 L 138.34375 140.335938 L 138.355469 132.488281 C 138.359375 128.175781 138.578125 124.316406 138.839844 123.917969 C 139.097656 123.519531 140.1875 123 141.253906 122.765625 L 143.191406 122.339844 L 143.257812 115.089844 C 143.308594 109.878906 143.730469 106.300781 144.753906 102.367188 C 145.539062 99.355469 147.324219 94.703125 148.722656 92.027344 C 150.117188 89.347656 153.085938 84.984375 155.320312 82.328125 C 157.554688 79.667969 160.828125 76.386719 162.597656 75.039062 C 164.363281 73.6875 167.703125 71.6875 170.011719 70.597656 C 172.324219 69.507812 174.648438 68.394531 175.183594 68.125 C 175.898438 67.761719 176.203125 66.261719 176.339844 62.375 C 176.515625 57.488281 176.632812 57.089844 178.027344 56.742188 C 179.390625 56.398438 179.5625 55.90625 179.902344 51.402344 C 180.242188 46.910156 180.464844 46.277344 182.253906 44.675781 C 183.339844 43.703125 184.230469 42.621094 184.230469 42.273438 C 184.230469 41.925781 183.652344 41.332031 182.945312 40.953125 C 182.238281 40.574219 181.21875 39.414062 180.683594 38.375 C 180.144531 37.339844 179.707031 35.53125 179.710938 34.355469 C 179.710938 33.183594 180.308594 31.25 181.035156 30.054688 C 181.761719 28.863281 183.199219 27.566406 184.234375 27.179688 C 185.875 26.558594 186.132812 26.105469 186.300781 23.53125 C 186.472656 20.875 186.648438 20.589844 188.109375 20.589844 C 189.574219 20.589844 189.742188 20.871094 189.921875 23.628906 C 190.066406 25.867188 190.417969 26.761719 191.273438 27.03125 C 191.90625 27.234375 193.089844 28.101562 193.898438 28.964844 C 194.789062 29.914062 195.492188 31.644531 195.6875 33.371094 C 195.902344 35.273438 195.660156 36.882812 194.953125 38.25 C 194.375 39.371094 193.160156 40.773438 192.261719 41.363281 L 190.621094 42.4375 L 193.082031 44.957031 C 195.421875 47.351562 195.542969 47.679688 195.578125 51.800781 C 195.609375 55.90625 195.699219 56.164062 197.355469 56.742188 C 199.046875 57.339844 199.097656 57.5 199.097656 62.4375 L 199.097656 67.519531 L 202.699219 69.113281 C 204.683594 69.988281 208.390625 72.125 210.941406 73.855469 C 213.492188 75.589844 216.476562 77.984375 217.574219 79.175781 C 218.671875 80.367188 220.886719 83.085938 222.492188 85.21875 C 224.101562 87.351562 226.140625 90.550781 227.03125 92.328125 C 227.917969 94.105469 229.25 97.332031 229.992188 99.496094 C 230.730469 101.660156 231.679688 105.402344 232.097656 107.808594 C 232.519531 110.214844 232.730469 114.476562 232.566406 117.273438 L 232.273438 122.363281 L 234.410156 122.765625 L 236.542969 123.167969 L 236.726562 131.640625 L 236.90625 140.117188 L 239.488281 140.839844 L 242.074219 141.5625 L 242.449219 152.757812 L 238.519531 152.757812 L 238.519531 183.03125 L 240.460938 183.457031 C 242.257812 183.851562 242.398438 184.09375 242.398438 186.742188 L 242.398438 189.597656 L 255.324219 189.597656 L 255.324219 212.863281 L 332.878906 212.863281 L 332.878906 226.4375 L 338.050781 226.4375 L 338.050781 237.425781 L 349.085938 237.425781 L 348.898438 243.402344 L 348.714844 249.382812 L 343.707031 249.570312 L 338.695312 249.757812 L 338.695312 255.15625 C 338.695312 259.355469 338.480469 260.636719 337.726562 260.925781 C 336.882812 261.25 336.757812 265.953125 336.757812 297.832031 L 336.757812 334.371094 L 341.28125 334.371094 L 341.28125 350.527344 L 343.867188 350.527344 C 346.308594 350.527344 346.453125 350.632812 346.453125 352.464844 L 346.453125 354.40625 Z M 73.464844 350.371094 L 109.453125 350.203125 L 109.3125 344.398438 C 109.226562 340.789062 108.882812 338.402344 108.410156 338.089844 C 107.988281 337.8125 91.9375 337.664062 72.746094 337.757812 L 37.84375 337.925781 L 37.660156 344.230469 L 37.472656 350.539062 Z M 300.589844 350.527344 L 337.449219 350.527344 L 337.082031 337.925781 L 302.503906 337.734375 C 283.488281 337.628906 266.980469 337.714844 265.828125 337.925781 L 263.726562 338.304688 L 263.726562 350.527344 Z M 123.800781 349.878906 L 134.464844 349.878906 L 134.464844 337.601562 L 113.136719 337.601562 L 113.136719 349.878906 Z M 153.164062 349.878906 L 163.457031 349.878906 L 163.664062 344.007812 C 163.777344 340.777344 163.75 338.015625 163.601562 337.867188 C 163.457031 337.722656 158.730469 337.601562 153.101562 337.601562 L 142.867188 337.601562 L 142.867188 349.878906 Z M 186.46875 349.878906 L 197.15625 349.878906 L 197.15625 337.570312 L 186.65625 337.746094 L 176.152344 337.925781 L 175.964844 343.902344 L 175.78125 349.878906 Z M 219.453125 349.878906 L 230.117188 349.878906 L 230.117188 337.601562 L 208.789062 337.601562 L 208.789062 349.878906 Z M 249.136719 349.878906 L 259.757812 349.878906 L 259.964844 344.007812 C 260.078125 340.777344 260.050781 338.015625 259.902344 337.867188 C 259.753906 337.722656 254.882812 337.601562 249.078125 337.601562 L 238.519531 337.601562 L 238.519531 349.878906 Z M 78.070312 334.214844 L 113.460938 334.046875 L 113.796875 271.679688 L 112.175781 271.679688 C 110.578125 271.679688 110.554688 271.597656 110.554688 266.519531 C 110.554688 261.707031 110.457031 261.339844 109.097656 261.007812 C 108.296875 260.816406 93.101562 260.738281 75.328125 260.835938 L 43.015625 261.015625 L 42.847656 297.699219 L 42.679688 334.378906 Z M 124.125 334.371094 L 130.589844 334.371094 L 130.589844 272.324219 L 117.660156 272.324219 L 117.660156 334.371094 Z M 152.886719 334.371094 L 159.671875 334.371094 L 159.671875 272.324219 L 153.277344 272.324219 C 148.042969 272.324219 146.8125 272.511719 146.492188 273.347656 C 146.277344 273.910156 146.097656 287.871094 146.097656 304.371094 L 146.097656 334.371094 Z M 186.816406 334.371094 L 193.277344 334.371094 L 193.277344 272.324219 L 180.503906 272.324219 L 180.207031 276.363281 C 180.042969 278.585938 179.953125 283.019531 180.003906 286.21875 C 180.058594 289.417969 180.160156 301.5625 180.226562 313.203125 L 180.351562 334.371094 Z M 219.777344 334.371094 L 226.242188 334.371094 L 226.242188 272.324219 L 213.316406 272.324219 L 213.316406 334.371094 Z M 249.507812 334.371094 L 255.96875 334.371094 L 255.96875 272.324219 L 243.042969 272.324219 L 243.042969 334.371094 Z M 296.195312 334.214844 L 332.558594 334.046875 L 332.558594 261.015625 L 300.566406 260.824219 C 282.96875 260.722656 267.335938 260.8125 265.828125 261.027344 L 263.078125 261.417969 L 263.078125 266.503906 C 263.078125 271.285156 262.992188 271.601562 261.625 271.792969 L 260.171875 272 L 260.003906 303.191406 L 259.835938 334.378906 Z M 65.3125 330.492188 L 57.554688 330.492188 L 57.554688 306.546875 C 57.554688 287.304688 57.734375 282.257812 58.460938 280.855469 C 58.957031 279.894531 59.9375 278.585938 60.640625 277.949219 C 61.34375 277.3125 62.914062 276.632812 64.132812 276.433594 C 65.421875 276.226562 67.289062 276.472656 68.625 277.027344 C 70.109375 277.648438 71.28125 278.777344 71.988281 280.261719 C 72.9375 282.261719 73.066406 285.441406 73.066406 306.515625 L 73.066406 330.492188 Z M 95.363281 330.492188 L 87.933594 330.492188 L 87.933594 306.09375 C 87.9375 283.179688 88.011719 281.570312 89.175781 279.660156 C 89.945312 278.40625 91.332031 277.328125 92.8125 276.835938 C 94.644531 276.234375 95.789062 276.222656 97.675781 276.785156 C 99.03125 277.195312 100.738281 278.285156 101.46875 279.214844 C 102.757812 280.847656 102.796875 281.664062 102.796875 305.695312 L 102.796875 330.492188 Z M 282.144531 330.492188 L 274.714844 330.492188 L 274.714844 306.09375 C 274.71875 283.179688 274.792969 281.570312 275.957031 279.660156 C 276.722656 278.40625 278.113281 277.328125 279.59375 276.835938 C 281.425781 276.234375 282.570312 276.222656 284.457031 276.785156 C 285.8125 277.195312 287.519531 278.285156 288.25 279.214844 C 289.539062 280.847656 289.578125 281.664062 289.578125 305.695312 L 289.578125 330.492188 Z M 312.015625 330.351562 L 304.398438 330.53125 L 304.765625 280.75 L 306.878906 278.636719 C 308.722656 276.796875 309.410156 276.53125 312.210938 276.574219 C 314.625 276.609375 315.816406 276.988281 316.992188 278.089844 C 317.851562 278.898438 318.875 280.332031 319.265625 281.273438 C 319.746094 282.4375 319.917969 290.578125 319.800781 306.578125 L 319.632812 330.167969 Z M 124.363281 269.59375 L 134.144531 269.417969 L 134.144531 261.015625 L 124.355469 260.835938 L 114.570312 260.660156 L 114.308594 263.394531 C 114.164062 264.898438 114.167969 266.949219 114.316406 267.953125 L 114.582031 269.773438 Z M 153.179688 269.738281 L 163.550781 269.738281 L 163.550781 260.660156 L 153.371094 260.835938 L 143.191406 261.015625 L 143 265.375 L 142.808594 269.738281 Z M 186.785156 269.738281 L 197.15625 269.738281 L 197.15625 260.660156 L 186.976562 260.835938 L 176.796875 261.015625 L 176.609375 265.375 L 176.417969 269.738281 Z M 219.777344 269.738281 L 230.117188 269.738281 L 230.117188 260.691406 L 209.4375 260.691406 L 209.4375 269.738281 Z M 249.15625 269.738281 L 259.203125 269.738281 L 259.203125 260.65625 L 249.347656 260.835938 L 239.488281 261.015625 L 239.296875 265.375 L 239.109375 269.738281 Z M 74.683594 257.460938 L 109.261719 257.460938 L 109.261719 249.703125 L 40.105469 249.703125 L 40.105469 257.460938 Z M 187.300781 257.300781 L 261.464844 257.136719 L 261.464844 247.441406 L 257.101562 247.460938 C 254.703125 247.472656 221.328125 247.546875 182.9375 247.625 L 113.136719 247.765625 L 113.136719 257.464844 Z M 300.351562 257.460938 L 334.820312 257.460938 L 334.820312 249.703125 L 300.3125 249.703125 C 269.441406 249.703125 265.761719 249.8125 265.410156 250.726562 C 265.195312 251.289062 265.019531 252.839844 265.019531 254.171875 C 265.019531 255.507812 265.210938 256.792969 265.449219 257.027344 C 265.6875 257.265625 281.390625 257.460938 300.351562 257.460938 Z M 65.367188 245.828125 C 84.945312 245.828125 100.859375 245.609375 100.730469 245.339844 C 100.601562 245.074219 100.09375 244.058594 99.601562 243.078125 L 98.710938 241.300781 L 29.765625 241.300781 L 29.765625 245.828125 Z M 309.613281 245.828125 L 345.160156 245.828125 L 345.160156 241.300781 L 275.566406 241.300781 L 274.816406 242.949219 C 274.402344 243.855469 274.066406 244.871094 274.066406 245.210938 C 274.066406 245.59375 287.515625 245.828125 309.613281 245.828125 Z M 119.925781 243.46875 C 121.703125 243.351562 156.246094 243.25 196.6875 243.246094 L 270.222656 243.242188 L 270.878906 241.507812 C 271.421875 240.078125 271.335938 239.648438 270.378906 239.082031 C 269.742188 238.703125 262.53125 235.164062 254.355469 231.21875 C 246.179688 227.269531 228.1875 218.472656 214.375 211.667969 C 200.558594 204.859375 188.730469 199.292969 188.082031 199.292969 C 187.4375 199.292969 184.195312 200.566406 180.882812 202.121094 C 177.570312 203.675781 170.933594 206.835938 166.132812 209.144531 C 161.335938 211.453125 153.484375 215.226562 148.683594 217.527344 C 143.886719 219.828125 131.816406 225.582031 121.863281 230.316406 C 111.910156 235.050781 103.539062 239.121094 103.257812 239.359375 C 102.976562 239.601562 103.039062 240.5625 103.394531 241.496094 C 104.019531 243.144531 104.226562 243.199219 110.367188 243.441406 C 113.847656 243.574219 118.148438 243.589844 119.925781 243.46875 Z M 187.5 240.007812 C 148.421875 240.007812 116.304688 239.78125 116.132812 239.5 C 115.957031 239.222656 119.503906 237.195312 124.011719 234.996094 C 128.515625 232.796875 144.671875 225.019531 159.910156 217.714844 L 187.617188 204.433594 L 194.488281 207.632812 C 198.265625 209.390625 206.738281 213.507812 213.316406 216.78125 C 219.890625 220.054688 230.214844 225.117188 236.257812 228.035156 C 242.300781 230.953125 249.789062 234.585938 252.902344 236.109375 C 256.011719 237.632812 258.554688 239.132812 258.554688 239.445312 C 258.554688 239.765625 227.714844 240.007812 187.5 240.007812 Z M 69.53125 237.425781 L 97.660156 237.425781 L 108.953125 232.097656 L 120.246094 226.773438 L 120.246094 216.742188 L 45.921875 216.742188 L 45.921875 230.316406 L 41.398438 230.316406 L 41.398438 237.425781 Z M 305.25 237.398438 L 334.171875 237.425781 L 334.171875 230.316406 L 329.003906 230.316406 L 329.003906 216.742188 L 255.273438 216.742188 L 255.460938 221.957031 C 255.632812 226.742188 255.78125 227.246094 257.261719 228.101562 C 258.152344 228.613281 262.804688 230.910156 267.605469 233.203125 L 276.328125 237.371094 Z M 187.945312 236.773438 L 244.660156 236.769531 L 232.703125 230.886719 C 226.128906 227.648438 213.652344 221.542969 204.980469 217.316406 C 196.308594 213.089844 188.589844 209.632812 187.824219 209.632812 C 187.0625 209.632812 182.289062 211.667969 177.214844 214.15625 C 172.140625 216.644531 167.878906 218.679688 167.742188 218.679688 C 167.609375 218.679688 162.757812 220.96875 156.960938 223.761719 C 151.164062 226.554688 143.003906 230.503906 138.828125 232.535156 C 134.652344 234.570312 131.234375 236.355469 131.234375 236.503906 C 131.234375 236.65625 156.753906 236.777344 187.945312 236.773438 Z M 250.972656 225.125 C 251.246094 225.136719 251.390625 217.945312 251.296875 209.148438 L 251.125 193.152344 L 187.625 192.992188 L 124.125 192.835938 L 124.125 224.585938 L 125.5 224.148438 C 126.253906 223.910156 135.195312 219.707031 145.371094 214.808594 C 155.546875 209.910156 169.109375 203.363281 175.507812 200.257812 C 181.90625 197.152344 187.453125 194.597656 187.832031 194.582031 C 188.214844 194.566406 191.558594 196.035156 195.265625 197.847656 C 198.972656 199.65625 212.910156 206.53125 226.242188 213.125 C 239.570312 219.714844 250.699219 225.117188 250.972656 225.125 Z M 187.699219 189.597656 C 223.761719 189.597656 237.921875 189.398438 238.242188 188.878906 C 238.484375 188.484375 238.316406 187.933594 237.863281 187.652344 C 237.414062 187.375 231.632812 186.898438 225.015625 186.59375 C 218.402344 186.292969 199.175781 186.101562 182.292969 186.175781 C 165.40625 186.246094 148.542969 186.539062 144.8125 186.820312 C 139.117188 187.253906 138 187.515625 137.820312 188.46875 C 137.613281 189.535156 140.335938 189.597656 187.699219 189.597656 Z M 151.027344 183.136719 C 152.136719 183.136719 153.957031 182.953125 155.066406 182.730469 L 157.085938 182.328125 L 157.085938 170.109375 C 157.085938 161.03125 157.320312 157.324219 158 155.699219 C 158.503906 154.496094 159.503906 153.195312 160.222656 152.8125 C 160.9375 152.425781 162.285156 152.113281 163.214844 152.113281 C 164.152344 152.113281 165.621094 152.832031 166.523438 153.734375 L 168.144531 155.359375 L 167.949219 168.925781 L 167.75 182.488281 L 181.644531 182.488281 L 181.644531 169.53125 C 181.644531 159.238281 181.847656 156.183594 182.621094 154.683594 C 183.160156 153.648438 184.15625 152.496094 184.839844 152.132812 C 185.527344 151.765625 186.960938 151.464844 188.03125 151.464844 C 189.128906 151.464844 190.691406 152.097656 191.621094 152.921875 L 193.269531 154.375 L 193.4375 168.269531 L 193.601562 182.164062 L 200.710938 182.347656 L 207.820312 182.527344 L 207.820312 168.988281 C 207.820312 155.546875 207.832031 155.4375 209.386719 153.78125 C 210.371094 152.734375 211.648438 152.113281 212.824219 152.113281 C 213.851562 152.113281 215.246094 152.410156 215.925781 152.773438 C 216.605469 153.136719 217.480469 154.03125 217.871094 154.757812 C 218.324219 155.605469 218.554688 160.804688 218.511719 169.203125 L 218.445312 182.328125 L 219.917969 182.722656 C 220.730469 182.941406 222.628906 183.121094 224.140625 183.125 L 226.886719 183.136719 L 226.886719 170.167969 C 226.886719 162.226562 227.152344 156.699219 227.574219 155.910156 C 227.953125 155.203125 228.898438 154.390625 229.671875 154.105469 C 230.441406 153.820312 231.878906 153.816406 232.859375 154.097656 C 234.351562 154.523438 234.640625 154.410156 234.640625 153.398438 C 234.640625 152.734375 234.40625 152.042969 234.117188 151.863281 C 233.828125 151.6875 229.246094 151.027344 223.9375 150.398438 C 216.191406 149.484375 209.113281 149.261719 188.109375 149.273438 C 168.714844 149.28125 159.386719 149.554688 152.105469 150.320312 C 146.703125 150.890625 141.976562 151.542969 141.605469 151.773438 C 141.234375 152 140.929688 152.726562 140.929688 153.382812 C 140.929688 154.386719 141.308594 154.523438 143.363281 154.25 C 145.183594 154.003906 146.203125 154.25 147.402344 155.222656 L 149.007812 156.523438 L 149.007812 183.136719 Z M 138.96875 148.601562 C 140.226562 148.410156 144.160156 147.964844 147.714844 147.613281 C 151.269531 147.257812 158.828125 146.671875 164.507812 146.308594 C 170.1875 145.945312 180.976562 145.648438 188.480469 145.648438 C 195.988281 145.648438 206.753906 145.953125 212.40625 146.324219 C 218.058594 146.691406 226.078125 147.421875 230.226562 147.9375 C 234.375 148.457031 238.101562 148.882812 238.507812 148.882812 C 238.960938 148.882812 239.167969 147.96875 239.042969 146.496094 C 238.871094 144.449219 238.566406 144.039062 236.90625 143.625 C 235.839844 143.355469 231.910156 142.695312 228.179688 142.15625 C 224.445312 141.617188 215.140625 140.839844 207.496094 140.433594 C 199.335938 140 187.734375 139.867188 179.382812 140.117188 C 171.5625 140.351562 161.238281 140.828125 156.441406 141.179688 C 151.640625 141.53125 145.253906 142.324219 142.246094 142.941406 C 136.929688 144.03125 136.761719 144.121094 136.351562 146.125 C 136.121094 147.261719 136.101562 148.363281 136.308594 148.570312 C 136.515625 148.777344 137.714844 148.792969 138.96875 148.601562 Z M 144.320312 135.082031 C 145.476562 134.875 150.203125 134.339844 154.824219 133.894531 C 159.9375 133.398438 172.714844 133.085938 187.460938 133.097656 C 201.664062 133.105469 214.777344 133.433594 219.132812 133.890625 C 223.21875 134.316406 228.089844 134.851562 229.957031 135.078125 L 233.351562 135.488281 L 233.351562 126.40625 L 231.25 126.027344 C 230.09375 125.824219 226.675781 125.359375 223.65625 125 C 220.632812 124.640625 211.472656 124.027344 203.296875 123.636719 C 195.121094 123.25 183.34375 123.117188 177.121094 123.34375 C 170.902344 123.570312 161.304688 124.175781 155.792969 124.691406 C 150.285156 125.207031 144.976562 125.792969 144 125.996094 C 142.261719 126.355469 142.222656 126.46875 142.222656 130.90625 L 142.222656 135.453125 Z M 149.746094 121.5 C 151.394531 121.273438 153.386719 121.089844 154.179688 121.089844 C 155.554688 121.089844 155.628906 120.796875 155.960938 113.820312 C 156.152344 109.820312 156.796875 104.222656 157.394531 101.378906 C 157.992188 98.535156 159.347656 94.027344 160.402344 91.359375 C 161.460938 88.695312 163.273438 84.914062 164.429688 82.957031 C 165.589844 81.003906 167.101562 78.539062 167.789062 77.480469 L 169.042969 75.554688 L 166.457031 77.109375 C 165.035156 77.960938 162.363281 80.203125 160.519531 82.089844 C 158.671875 83.980469 156.242188 86.859375 155.121094 88.492188 C 154 90.121094 152.117188 93.542969 150.941406 96.09375 C 149.761719 98.644531 148.335938 102.972656 147.773438 105.714844 C 147.207031 108.453125 146.746094 113.21875 146.746094 116.304688 L 146.746094 121.914062 Z M 226.714844 121.625 C 227.773438 121.707031 228.265625 121.292969 228.574219 120.0625 C 228.804688 119.140625 228.84375 115.722656 228.660156 112.46875 C 228.441406 108.675781 227.71875 104.6875 226.652344 101.378906 C 225.730469 98.535156 223.65625 93.949219 222.035156 91.191406 C 220.28125 88.203125 217.132812 84.25 214.242188 81.40625 C 211.578125 78.78125 208.828125 76.488281 208.132812 76.304688 C 207.078125 76.03125 206.976562 76.167969 207.511719 77.167969 C 207.863281 77.824219 208.453125 78.546875 208.816406 78.773438 C 209.183594 79 210.773438 81.890625 212.347656 85.195312 C 213.925781 88.5 215.960938 93.78125 216.875 96.933594 C 217.789062 100.085938 218.808594 104.558594 219.144531 106.871094 C 219.476562 109.179688 219.757812 113.308594 219.765625 116.042969 L 219.777344 121.015625 L 222.523438 121.261719 C 224.035156 121.398438 225.921875 121.5625 226.714844 121.625 Z M 187.785156 120.121094 L 215.898438 120.121094 L 215.898438 114.535156 C 215.898438 111.464844 215.445312 106.566406 214.894531 103.648438 C 214.339844 100.730469 213.144531 96.261719 212.242188 93.71875 C 211.335938 91.179688 209.476562 87.0625 208.113281 84.574219 C 206.75 82.085938 204.097656 78.328125 202.21875 76.226562 C 200.335938 74.121094 197.5 71.578125 195.914062 70.570312 C 193.417969 68.988281 192.378906 68.738281 188.285156 68.738281 C 185.675781 68.738281 182.605469 69.140625 181.464844 69.632812 C 180.320312 70.125 178.144531 71.605469 176.628906 72.921875 C 175.113281 74.242188 172.539062 77.1875 170.910156 79.46875 C 169.28125 81.75 167.210938 85.144531 166.308594 87.003906 C 165.40625 88.867188 163.984375 92.394531 163.148438 94.84375 C 162.3125 97.292969 161.1875 101.613281 160.648438 104.449219 C 160.113281 107.28125 159.671875 111.96875 159.671875 114.859375 L 159.671875 120.121094 Z M 187.558594 65.070312 C 192.71875 64.984375 194.917969 64.710938 195.304688 64.097656 C 195.601562 63.628906 195.847656 62.480469 195.855469 61.542969 C 195.863281 60.320312 195.457031 59.734375 194.410156 59.453125 C 193.609375 59.238281 190.773438 59.0625 188.109375 59.0625 C 185.441406 59.0625 182.605469 59.238281 181.808594 59.453125 C 180.597656 59.777344 180.351562 60.289062 180.351562 62.515625 L 180.351562 65.183594 Z M 190.855469 52.707031 C 191.121094 52.597656 191.339844 51.707031 191.339844 50.734375 C 191.339844 49.761719 190.992188 48.613281 190.566406 48.1875 C 190.136719 47.761719 188.742188 47.410156 187.460938 47.410156 C 186.183594 47.410156 184.785156 47.761719 184.359375 48.1875 C 183.933594 48.613281 183.585938 49.761719 183.585938 50.738281 C 183.585938 52.425781 183.753906 52.523438 186.976562 52.710938 C 188.84375 52.816406 190.589844 52.816406 190.855469 52.707031 Z M 188.039062 38.363281 C 188.910156 38.363281 190.15625 37.882812 190.804688 37.292969 C 191.453125 36.707031 191.988281 35.414062 191.988281 34.421875 C 191.988281 33.292969 191.449219 32.246094 190.550781 31.613281 C 189.761719 31.0625 188.402344 30.609375 187.53125 30.609375 C 186.660156 30.609375 185.417969 31.089844 184.765625 31.679688 C 184.117188 32.265625 183.585938 33.558594 183.585938 34.550781 C 183.585938 35.679688 184.121094 36.726562 185.019531 37.359375 C 185.8125 37.910156 187.167969 38.363281 188.039062 38.363281 Z M 188.039062 38.363281 " fill-opacity="1" fill-rule="evenodd"/></g></svg>